<svg xmlns="http://www.w3.org/2000/svg" xmlns:xlink="http://www.w3.org/1999/xlink" data-name="Layer 1" width="996.4600219726562" height="828.1799926757812" style=""><rect id="backgroundrect" width="100%" height="100%" x="0" y="0" fill="none" stroke="none"/><defs><linearGradient id="e507827f-2863-48fa-82fe-b741cb149057" x1="0.4999322295188904" y1="0.9999966621398926" x2="0.4999322295188904" y2="-0.00010079381900141016"><stop offset="0" stop-color="gray" stop-opacity="0.25"/><stop offset="0.54" stop-color="gray" stop-opacity="0.12"/><stop offset="1" stop-color="gray" stop-opacity="0.1"/></linearGradient></defs><title>on the office</title><g class="currentLayer" style=""><title>Layer 1</title><path d="M994.5900033569335,272.4500001525879 h-91.94 V383.9000001525879 h85.22 c0.22000000000000003,1.15 0.43000000000000005,2.3 0.6800000000000002,3.44 h-85.9 v89.86 l0.43000000000000005,-0.14 q3.64,-1.28 7.23,-2.72 l1.54,-0.6300000000000001 q3.68,-1.51 7.23,-3.23 c0.8500000000000001,-0.39000000000000007 1.6900000000000002,-0.8 2.52,-1.22 a149.83,149.83 0 0 0 36.17,-25 c0.31000000000000005,-0.27 0.6000000000000001,-0.55 0.8800000000000001,-0.8200000000000001 c1.47,-1.42 2.91,-2.85 4.3100000000000005,-4.32 l1.54,-1.6400000000000001 c1.6500000000000001,-1.79 3.24,-3.64 4.79,-5.51 l0.6800000000000002,-0.8200000000000001 a116.4,116.4 0 0 0 15.58,-25 c0.13,-0.27 0.24000000000000002,-0.55 0.36000000000000004,-0.8200000000000001 c1.25,-2.8200000000000003 2.38,-5.68 3.36,-8.59 c0.42000000000000004,-1.23 0.8200000000000001,-2.46 1.17,-3.6900000000000004 c0.12000000000000001,-0.37000000000000005 0.23,-0.7300000000000001 0.33000000000000007,-1.09 c5.1,-17.85 5.69,-36.4 5.69,-54.85 c0,-2.15 0,-4.3100000000000005 0,-6.45 c0,-7.45 -0.11000000000000001,-15 -0.25,-22.45 c0,-1.94 -0.09000000000000002,-3.87 -0.14,-5.82 q-0.18000000000000002,-7.43 -0.54,-14.84 c-0.06000000000000001,-1.3800000000000001 -0.12000000000000001,-2.75 -0.21000000000000002,-4.11 c0,-0.79 -0.08000000000000002,-1.58 -0.13,-2.37 C994.9900033569336,278.1400001525879 994.8100033569335,275.30000015258787 994.5900033569335,272.4500001525879 z" fill="#000000" opacity="0.1" id="svg_1" class="" fill-opacity="1"/><path d="M902.6500033569336,148.38000015258788 h50.43 A344.83,344.83 0 0 0 926.2300033569336,115.54000015258788 c-7.5,-8.18 -15.37,-16.16 -23.61,-23.84 z" fill="#000000" opacity="0.1" id="svg_2" class="" fill-opacity="1"/><path d="M902.6500033569336,151.82000015258788 V269.0100001525879 h91.65 c0,-0.3400000000000001 -0.06000000000000001,-0.6900000000000002 -0.09000000000000002,-1 c-0.08000000000000002,-0.92 -0.16000000000000003,-1.84 -0.25,-2.77 s-0.21000000000000002,-2.16 -0.33000000000000007,-3.25 s-0.24000000000000002,-2.35 -0.38000000000000006,-3.51 s-0.26,-2.35 -0.41000000000000003,-3.52 s-0.29000000000000004,-2.34 -0.45,-3.5 s-0.31000000000000005,-2.34 -0.49000000000000005,-3.5 c-0.14,-1 -0.27,-1.92 -0.42000000000000004,-2.89 c-0.21000000000000002,-1.36 -0.43000000000000005,-2.73 -0.6600000000000001,-4.08 a5.78,5.78 0 0 0 -0.11000000000000001,-0.6000000000000001 a251.24,251.24 0 0 0 -6.74,-29.43 A202.47,202.47 0 0 0 972.6000033569335,181.0900001525879 a216.88,216.88 0 0 0 -17.11,-29.3 z" fill="#000000" opacity="0.1" id="svg_3" class="" fill-opacity="1"/><path d="M684.3100033569336,272.4500001525879 V383.9000001525879 H880.6900033569336 V272.4500001525879 zm0,114.89 v75.47 c22.86,-7.3100000000000005 49,-4.36 72.7,1.6400000000000001 c18.35,4.66 36.23,11 54.55,15.56 a200.08,200.08 0 0 0 24.87,4.7 l2.06,0.22000000000000003 c1,0.1 2,0.2 3,0.28 l3,0.21000000000000002 l0.31000000000000005,0 l1.34,0 a3.55,3.55 0 0 0 0.46,0 l1.62,0.06000000000000001 h0.05000000000000001 c0.77,0 1.55,0 2.33,0.06000000000000001 h1 c0.77,0 1.55,0 2.33,0 l1.71,0 l1.3800000000000001,0 c0.5900000000000001,0 1.17,0 1.75,-0.06000000000000001 c0.9400000000000001,0 1.8800000000000001,-0.08000000000000002 2.83,-0.15000000000000002 a0,0 0 0 0 0,0 l1.75,-0.11000000000000001 l2.16,-0.17 c1.53,-0.12000000000000001 3,-0.28 4.55,-0.46 c0.6000000000000001,-0.07 1.21,-0.14 1.81,-0.23 l0.8900000000000001,-0.11000000000000001 c1.51,-0.2 3,-0.44000000000000006 4.51,-0.6900000000000002 c1.11,-0.17 2.22,-0.38000000000000006 3.34,-0.5800000000000001 V387.3400001525879 zm146.06,-239 v3.44 H684.3100033569336 V269.0100001525879 H880.6900033569336 V151.82000015258788 h-9.85 v-3.44 h9.85 V72.64000015258789 c-38.2,-30.77 -82.85,-54.87 -132.58,-66 a282,282 0 0 0 -63.8,-6.65 V148.38000015258788 zm-449,-0.6600000000000001 l0.6900000000000002,0.6600000000000001 H662.3400033569336 V1.0200001525878903 c-49.9,4.15 -98.56,20.91 -137.79,48.68 c-18.85,13.33 -35.78,29.13 -56.93,39.36 a89.15,89.15 0 0 1 -35.6,9.2 zm-1.9300000000000002,-60.44 v33.35 l27.08,-26.43 C396.4500033569336,90.6800001525879 388.51000335693357,88.30000015258788 379.4000033569336,87.28000015258789 zm-0.9,419.56 l0.9,0 v73.1 q15.33,-1.1400000000000001 30.54,-3.14 A546.44,546.44 0 0 0 542.2300033569336,542.5000001525879 h0 q6.84,-2.74 13.58,-5.66 q4.49,-1.9500000000000002 8.93,-4 q6.66,-3.06 13.22,-6.29 A465.15,465.15 0 0 0 633.8300033569336,494.0900001525879 c1.11,-0.7500000000000001 2.23,-1.51 3.33,-2.2800000000000002 q3.3200000000000003,-2.3 6.59,-4.640000000000001 c1.09,-0.79 2.18,-1.58 3.26,-2.38 L649.2300033569336,483.0900001525879 c2.24,-1.6700000000000002 4.47,-3.35 6.73,-5 h0 c2.09,-1.5 4.2,-3 6.34,-4.4 v-86.4 H437.15000335693355 c0.16000000000000003,-0.51 0.31000000000000005,-1 0.48000000000000004,-1.54 c-0.18000000000000002,0.52 -0.3400000000000001,1 -0.49000000000000005,1.54 H379.4000033569336 V506.78000015258795 zm0.9,-355 V269.0100001525879 H662.3400033569336 V151.82000015258788 zm0,120.63 V383.9000001525879 H662.3400033569336 V272.4500001525879 zM322.88000335693357,90.67000015258789 l34.56,33.73 V87.09000015258789 Q340.07000335693357,88.17000015258789 322.88000335693357,90.67000015258789 zM82.2300033569336,272.4500001525879 V383.9000001525879 H357.4400033569336 V272.4500001525879 zm66.52,275.25 a511.15,511.15 0 0 0 129.73,30.78 l0.19000000000000003,0 q12.59,1.33 25.25,2.06 l0.31000000000000005,0 h0 c17.69,1 35.45,1.23 53.18,0.5700000000000001 V387.3400001525879 H82.2300033569336 l1,128.32 M6.00000335693359,383.9000001525879 h54.28 V272.4500001525879 H38.810003356933606 c-2.23,3.92 -4.39,7.86 -6.44,11.86 q-1.6500000000000001,3.19 -3.21,6.45 C15.030003356933591,320.0900001525879 6.050003356933587,352.3300001525879 6.00000335693359,383.9000001525879 zm0,3.44 c0.44000000000000006,22.64 5.54,44.86 16.73,65.39 c9.3,17.05 22.22,32 37.51,45 V387.3400001525879 zm34.78,-118.33 h19.46 v-29 A309.35,309.35 0 0 0 40.8200033569336,269.0100001525879 zM162.7100033569336,148.38000015258788 H350.9500033569336 l0.6800000000000002,-0.6600000000000001 l-1,-1 h0 L297.7000033569336,95.09000015258789 A429.83,429.83 0 0 0 251.2300033569336,107.54000015258788 c-1.44,0.47000000000000003 -2.88,1 -4.3100000000000005,1.45 A421.47,421.47 0 0 0 162.7100033569336,148.38000015258788 zM82.2300033569336,213.7500001525879 v55.26 H323.5900033569336 l0,0 l0.05000000000000001,0 h33.83 v-114 l-3.8600000000000003,-3.14 H157.1700033569336 A377.73,377.73 0 0 0 82.2300033569336,213.7500001525879 z" fill="#000000" opacity="0.1" id="svg_4" class="" fill-opacity="1"/><path d="M902.6500033569336,210.9300001525879 v58.08 h91.65 c0,-0.3400000000000001 -0.06000000000000001,-0.6900000000000002 -0.09000000000000002,-1 c-0.08000000000000002,-0.92 -0.16000000000000003,-1.84 -0.25,-2.77 s-0.21000000000000002,-2.16 -0.33000000000000007,-3.25 s-0.24000000000000002,-2.35 -0.38000000000000006,-3.51 s-0.26,-2.35 -0.41000000000000003,-3.52 s-0.29000000000000004,-2.34 -0.45,-3.5 s-0.31000000000000005,-2.34 -0.49000000000000005,-3.5 c-0.14,-1 -0.27,-1.92 -0.42000000000000004,-2.89 c-0.21000000000000002,-1.36 -0.43000000000000005,-2.73 -0.6600000000000001,-4.08 a5.78,5.78 0 0 0 -0.11000000000000001,-0.6000000000000001 a251.24,251.24 0 0 0 -6.74,-29.43 z" fill="#000000" opacity="0.1" id="svg_5" class="" fill-opacity="1"/><path d="M994.5900033569335,272.4500001525879 h-91.94 V383.9000001525879 h85.22 c0.22000000000000003,1.15 0.43000000000000005,2.3 0.6800000000000002,3.44 h-85.9 v89.86 l0.43000000000000005,-0.14 q3.64,-1.28 7.23,-2.72 l1.54,-0.6300000000000001 q3.68,-1.51 7.23,-3.23 c0.8500000000000001,-0.39000000000000007 1.6900000000000002,-0.8 2.52,-1.22 a149.83,149.83 0 0 0 36.17,-25 c0.31000000000000005,-0.27 0.6000000000000001,-0.55 0.8800000000000001,-0.8200000000000001 c1.47,-1.42 2.91,-2.85 4.3100000000000005,-4.32 l1.54,-1.6400000000000001 c1.6500000000000001,-1.79 3.24,-3.64 4.79,-5.51 l0.6800000000000002,-0.8200000000000001 a116.4,116.4 0 0 0 15.58,-25 c0.13,-0.27 0.24000000000000002,-0.55 0.36000000000000004,-0.8200000000000001 c1.25,-2.8200000000000003 2.38,-5.68 3.36,-8.59 c0.42000000000000004,-1.23 0.8200000000000001,-2.46 1.17,-3.6900000000000004 c0.12000000000000001,-0.37000000000000005 0.23,-0.7300000000000001 0.33000000000000007,-1.09 c5.1,-17.85 5.69,-36.4 5.69,-54.85 c0,-2.15 0,-4.3100000000000005 0,-6.45 c0,-7.45 -0.11000000000000001,-15 -0.25,-22.45 c0,-1.94 -0.09000000000000002,-3.87 -0.14,-5.82 q-0.18000000000000002,-7.43 -0.54,-14.84 c-0.06000000000000001,-1.3800000000000001 -0.12000000000000001,-2.75 -0.21000000000000002,-4.11 c0,-0.79 -0.08000000000000002,-1.58 -0.13,-2.37 C994.9900033569336,278.1400001525879 994.8100033569335,275.30000015258787 994.5900033569335,272.4500001525879 z" fill="#000000" opacity="0.1" id="svg_6" class="" fill-opacity="1"/><polygon points="811.56 168.6 811.56 269.01 880.69 269.01 880.69 168.6 870.84 168.6 870.84 134.6 830.37 134.6 830.37 168.6 811.56 168.6" fill="#000000" opacity="0.1" id="svg_7" class="" fill-opacity="1"/><rect x="811.5599975585938" y="272.45001220703125" width="69.12999725341797" height="111.44000244140625" fill="#000000" opacity="0.1" id="svg_8" class="" fill-opacity="1"/><path d="M882.2284648036957,385.8015387058258 H813.1084648036957 v92.67 a201.42,201.42 0 0 0 24.86,4.7 l2.06,0.22000000000000006 c1,0.11000000000000003 2,0.2 3,0.28 l3,0.21000000000000005 c0.1,0 0.21000000000000005,0 0.3100000000000001,0 c0.4400000000000001,0 0.8900000000000002,0 1.34,0.06000000000000002 l0.46,0 c0.54,0 1.08,0 1.6300000000000003,0.06000000000000002 h0 c0.77,0 1.55,0 2.33,0.06000000000000002 h1 c0.78,0 1.55,0 2.33,0 l1.71,0 l1.3800000000000001,0 l1.7600000000000002,-0.06000000000000002 c0.93,0 1.8800000000000003,-0.08000000000000003 2.8200000000000003,-0.15000000000000005 a0,0 0 0 0 0,0 l1.7400000000000002,-0.11000000000000003 l2.17,-0.17 c1.52,-0.13 3,-0.28 4.54,-0.46 l1.81,-0.23 l0.8900000000000002,-0.11000000000000003 c1.51,-0.21000000000000005 3,-0.4300000000000001 4.51,-0.6900000000000004 c1.12,-0.17 2.22,-0.3800000000000001 3.34,-0.5800000000000002 z" fill="#000000" opacity="0.1" id="svg_9" class="" fill-opacity="1"/><rect x="379.3999938964844" y="156.74000549316406" width="57.0099983215332" height="112.26000213623047" fill="#000000" opacity="0.1" id="svg_10" class="" fill-opacity="1"/><polygon points="379.4 272.45 379.4 383.9 662.34 383.9 662.34 335.83 511.63 335.83 511.63 364.19 436.4 364.19 436.4 272.45 379.4 272.45" fill="#000000" opacity="0.1" id="svg_11" class="" fill-opacity="1"/><path d="M378.5000033569336,506.8400001525879 l0.9,0 v73.11 q15.33,-1.1600000000000001 30.54,-3.14 A547.41,547.41 0 0 0 542.2300033569336,542.5000001525879 q18.24,-7.32 35.73,-15.94 A465.15,465.15 0 0 0 633.8300033569336,494.0900001525879 q6.69,-4.54 13.17,-9.29 c3,-2.21 6,-4.46 9,-6.65 c2.09,-1.5 4.2,-3 6.34,-4.41 V387.3400001525879 H437.16000335693354 c0.16000000000000003,-0.51 0.31000000000000005,-1 0.47000000000000003,-1.53 c-0.17,0.51 -0.3400000000000001,1 -0.49000000000000005,1.53 H379.4000033569336 V506.79000015258794 z" fill="#000000" opacity="0.1" id="svg_12" class="" fill-opacity="1"/><path d="M230.7300033569336,148.38000015258788 h37.14 V138.0900001525879 H251.2300033569336 V107.54000015258788 c-1.44,0.47000000000000003 -2.88,1 -4.3100000000000005,1.45 V138.0900001525879 H230.7300033569336 z" fill="#6c63ff" opacity="0.1" id="svg_13" class=""/><path d="M141.2300033569336,269.0100001525879 H323.5900033569336 l-0.06000000000000001,0 l0.09000000000000002,0 h33.82 V156.7400001525879 h-9.58 v83 h-43.8 V190.6200001525879 H267.8700033569336 v-38.8 H230.7300033569336 v38.8 H194.5500033569336 v49.11 H141.2300033569336 z" fill="#000000" opacity="0.1" id="svg_14" class="" fill-opacity="1"/><path d="M141.2300033569336,272.4500001525879 V383.9000001525879 H357.4400033569336 V272.4500001525879 zm7.55,275.25 a511.15,511.15 0 0 0 129.73,30.78 l0.19000000000000003,0 q12.59,1.33 25.25,2.06 l0.31000000000000005,0 h0 c17.69,1 35.45,1.23 53.18,0.5700000000000001 V387.3400001525879 H141.2300033569336 v39.51 H82.2300033569336 l0.31000000000000005,88.21 " fill="#000000" opacity="0.1" id="svg_15" class="" fill-opacity="1"/><path d="M56.4700033569336,387.3400001525879 H6.040003356933596 c0.44000000000000006,22.64 5.55,44.86 16.73,65.39 c9.3,17.06 22.23,32 37.51,45 V426.8500001525879 h-3.81 z" fill="#000000" opacity="0.1" id="svg_16" class="" fill-opacity="1"/><path d="M6.00000335693359,383.9000001525879 h50.47 V290.7600001525879 H29.1600033569336 C15.030003356933591,320.0900001525879 6.050003356933587,352.3300001525879 6.00000335693359,383.9000001525879 z" fill="#000000" opacity="0.1" id="svg_17" class="" fill-opacity="1"/><rect x="379.3999938964844" y="187.9499969482422" width="30.540000915527344" height="35.20000076293945" fill="#6c63ff" opacity="0.1" id="svg_18" class=""/><rect x="379.3999938964844" y="260.9100036621094" width="30.540000915527344" height="8.100000381469727" fill="#6c63ff" opacity="0.1" id="svg_19" class=""/><rect x="379.3999938964844" y="272.45001220703125" width="30.540000915527344" height="23.649999618530273" fill="#6c63ff" opacity="0.1" id="svg_20" class=""/><rect x="379.3999938964844" y="333.8599853515625" width="30.540000915527344" height="35.20000076293945" fill="#6c63ff" opacity="0.1" id="svg_21" class=""/><rect x="379.3999938964844" y="406.82000732421875" width="30.540000915527344" height="35.20000076293945" fill="#6c63ff" opacity="0.1" id="svg_22" class=""/><path d="M379.4000033569336,506.79000015258794 l-0.9,0 l0.9,0 v8.17 h30.54 v-35.2 H379.4000033569336 z" fill="#6c63ff" opacity="0.1" id="svg_23" class=""/><path d="M379.4000033569336,552.7200001525879 v27.19 q15.33,-1.1600000000000001 30.54,-3.14 v-24 z" fill="#6c63ff" opacity="0.1" id="svg_24"/><rect x="531.4600219726562" y="381.30999755859375" width="130.8800048828125" height="2.5799999237060547" fill="#6c63ff" opacity="0.1" id="svg_25" class=""/><rect x="531.4600219726562" y="387.3399963378906" width="130.8800048828125" height="9.90999984741211" fill="#6c63ff" opacity="0.1" id="svg_26" class=""/><rect x="531.4600219726562" y="429.7300109863281" width="130.8800048828125" height="15.9399995803833" fill="#6c63ff" opacity="0.1" id="svg_27" class=""/><path d="M531.4600033569336,478.15000015258784 V494.0900001525879 H633.8400033569336 q6.67,-4.53 13.17,-9.3 c3,-2.2 6,-4.45 9,-6.63 z" fill="#6c63ff" opacity="0.1" id="svg_28" class=""/><path d="M531.4600033569336,526.5600001525879 v15.94 H542.2300033569336 q18.23,-7.3 35.72,-15.94 z" fill="#6c63ff" opacity="0.1" id="svg_29"/><rect x="1064.780029296875" y="944.489990234375" width="25.760000228881836" height="22.90999984741211" transform="rotate(-180 684.52001953125,625.3300170898438) " fill="#6c63ff" opacity="0.1" id="svg_30"/><rect x="2738.39990234375" y="624.22998046875" width="25.760000228881836" height="22.90999984741211" transform="rotate(-180 1800.260009765625,411.82000732421875) " fill="#6c63ff" opacity="0.1" id="svg_31"/><rect x="2738.39990234375" y="783.8900146484375" width="25.760000228881836" height="22.90999984741211" transform="rotate(-180 1800.260009765625,518.260009765625) " fill="#6c63ff" opacity="0.1" id="svg_32"/><rect x="2738.39990234375" y="943.5400390625" width="25.760000228881836" height="22.90999984741211" transform="rotate(-180 1800.260009765625,624.6900024414062) " fill="#6c63ff" opacity="0.1" id="svg_33"/><rect x="2738.39990234375" y="1103.199951171875" width="25.760000228881836" height="22.90999984741211" transform="rotate(-180 1800.260009765625,731.1300048828125) " fill="#6c63ff" opacity="0.1" id="svg_34"/><rect x="2738.39990234375" y="1262.8499755859375" width="25.760000228881836" height="22.90999984741211" transform="rotate(-180 1800.260009765625,837.5700073242188) " fill="#6c63ff" opacity="0.1" id="svg_35"/><rect x="2738.39990234375" y="1422.5" width="25.760000228881836" height="22.90999984741211" transform="rotate(-180 1800.260009765625,944) " fill="#6c63ff" opacity="0.1" id="svg_36"/><rect x="769.699951171875" y="944.489990234375" width="25.760000228881836" height="22.90999984741211" transform="rotate(-180 487.7999877929688,625.3300170898438) " fill="#6c63ff" opacity="0.1" id="svg_37"/><rect x="1064.780029296875" y="1114.030029296875" width="25.760000228881836" height="22.90999984741211" transform="rotate(-180 684.52001953125,738.3499755859375) " fill="#6c63ff" opacity="0.1" id="svg_38"/><rect x="769.699951171875" y="1114.030029296875" width="25.760000228881836" height="22.90999984741211" transform="rotate(-180 487.79998779296875,738.3499755859375) " fill="#6c63ff" opacity="0.1" id="svg_39"/><rect x="1064.780029296875" y="1283.56005859375" width="25.760000228881836" height="22.90999984741211" transform="rotate(-180 684.52001953125,851.3699951171875) " fill="#6c63ff" opacity="0.1" id="svg_40"/><rect x="769.699951171875" y="1283.56005859375" width="25.760000228881836" height="22.90999984741211" transform="rotate(-180 487.79998779296875,851.3699951171875) " fill="#6c63ff" opacity="0.1" id="svg_41"/><rect x="1064.780029296875" y="1453.090087890625" width="25.760000228881836" height="22.90999984741211" transform="rotate(-180 684.5200195312501,964.3900146484375) " fill="#6c63ff" opacity="0.1" id="svg_42"/><rect x="769.699951171875" y="1453.090087890625" width="25.760000228881836" height="22.90999984741211" transform="rotate(-180 487.79998779296875,964.3900146484375) " fill="#6c63ff" opacity="0.1" id="svg_43"/><rect x="1064.780029296875" y="1622.630126953125" width="25.760000228881836" height="22.90999984741211" transform="rotate(-180 684.5200195312501,1077.4200439453125) " fill="#6c63ff" opacity="0.1" id="svg_44"/><rect x="769.699951171875" y="1622.630126953125" width="25.760000228881836" height="22.90999984741211" transform="rotate(-180 487.79998779296875,1077.4200439453125) " fill="#6c63ff" opacity="0.1" id="svg_45"/><polygon points="304.25 580.58 304.25 565.81 278.5 565.81 278.5 578.48 304.25 580.58" fill="#6c63ff" opacity="0.1" id="svg_46"/><path d="M902.6500033569336,240.35000015258788 v13.11 h88.17 V240.35000015258788 zm79.39,0.8300000000000001 H989.2300033569336 v11.46 h-7.23 zm-8.78,0 h7.23 v11.46 H973.2300033569336 zm-8.76,0 h7.23 v11.46 h-7.23 zm-8.78,0 h7.23 v11.46 h-7.23 zm-8.77,0 H954.2300033569336 v11.46 h-7.23 zm-8.78,0 h7.23 v11.46 h-7.23 zm-8.78,0 h7.23 v11.46 h-7.23 zm-8.77,0 h7.23 v11.46 h-7.23 zm-8.77,0 h7.23 v11.46 h-7.23 zm-8.77,0 h7.23 v11.46 h-7.23 z" fill="#000000" opacity="0.1" id="svg_47" class="" fill-opacity="1"/><path d="M902.6500033569336,278.5100001525879 v13.11 h88.17 V278.5100001525879 zm79.39,0.8300000000000001 H989.2300033569336 V290.7900001525879 h-7.23 zm-8.78,0 h7.23 V290.7900001525879 H973.2300033569336 zm-8.76,0 h7.23 V290.7900001525879 h-7.23 zm-8.78,0 h7.23 V290.7900001525879 h-7.23 zm-8.77,0 H954.2300033569336 V290.7900001525879 h-7.23 zm-8.78,0 h7.23 V290.7900001525879 h-7.23 zm-8.78,0 h7.23 V290.7900001525879 h-7.23 zm-8.77,0 h7.23 V290.7900001525879 h-7.23 zm-8.77,0 h7.23 V290.7900001525879 h-7.23 zm-8.77,0 h7.23 V290.7900001525879 h-7.23 z" fill="#000000" opacity="0.1" id="svg_48" class="" fill-opacity="1"/><path d="M902.6500033569336,316.6600001525879 v13.1 h88.17 v-13.1 zm79.39,0.8200000000000001 H989.2300033569336 v11.46 h-7.23 zm-8.78,0 h7.23 v11.46 H973.2300033569336 zm-8.76,0 h7.23 v11.46 h-7.23 zm-8.78,0 h7.23 v11.46 h-7.23 zm-8.77,0 H954.2300033569336 v11.46 h-7.23 zm-8.78,0 h7.23 v11.46 h-7.23 zm-8.78,0 h7.23 v11.46 h-7.23 zm-8.77,0 h7.23 v11.46 h-7.23 zm-8.77,0 h7.23 v11.46 h-7.23 zm-8.77,0 h7.23 v11.46 h-7.23 z" fill="#000000" opacity="0.1" id="svg_49" class="" fill-opacity="1"/><path d="M902.6500033569336,354.8100001525879 v13.1 h88.17 v-13.1 zm79.39,0.8200000000000001 H989.2300033569336 V367.0900001525879 h-7.23 zm-8.78,0 h7.23 V367.0900001525879 H973.2300033569336 zm-8.76,0 h7.23 V367.0900001525879 h-7.23 zm-8.78,0 h7.23 V367.0900001525879 h-7.23 zm-8.77,0 H954.2300033569336 V367.0900001525879 h-7.23 zm-8.78,0 h7.23 V367.0900001525879 h-7.23 zm-8.78,0 h7.23 V367.0900001525879 h-7.23 zm-8.77,0 h7.23 V367.0900001525879 h-7.23 zm-8.77,0 h7.23 V367.0900001525879 h-7.23 zm-8.77,0 h7.23 V367.0900001525879 h-7.23 z" fill="#6c63ff" opacity="0.1" id="svg_50" class=""/><path d="M902.6500033569336,392.9600001525879 V406.0900001525879 h82.9 c0.12000000000000001,-0.27 0.24000000000000002,-0.55 0.35000000000000003,-0.8200000000000001 h-3.8600000000000003 V393.7900001525879 H989.2300033569336 v2.85 c0.42000000000000004,-1.22 0.8200000000000001,-2.44 1.17,-3.68 zm70.61,0.8300000000000001 h7.23 v11.45 H973.2300033569336 zm-8.76,0 h7.23 v11.45 h-7.23 zm-8.78,0 h7.23 v11.45 h-7.23 zm-8.77,0 H954.2300033569336 v11.45 h-7.23 zm-8.78,0 h7.23 v11.45 h-7.23 zm-8.78,0 h7.23 v11.45 h-7.23 zm-8.77,0 h7.23 v11.45 h-7.23 zm-8.77,0 h7.23 v11.45 h-7.23 zm-8.77,0 h7.23 v11.45 h-7.23 z" fill="#6c63ff" opacity="0.1" id="svg_51" class=""/><path d="M902.6500033569336,431.0900001525879 v13.1 h55.11 c0.32000000000000006,-0.27 0.6000000000000001,-0.56 0.8900000000000001,-0.8200000000000001 h-2.93 V431.9400001525879 h7.23 V439.0900001525879 l1.55,-1.6500000000000001 v-5.5 h4.79 c0.23,-0.28 0.45,-0.56 0.6800000000000002,-0.8200000000000001 zm44.3,0.8200000000000001 H954.2300033569336 v11.46 h-7.23 zm-8.78,0 h7.23 v11.46 h-7.23 zm-8.78,0 h7.23 v11.46 h-7.23 zm-8.77,0 h7.23 v11.46 h-7.23 zm-8.77,0 h7.23 v11.46 h-7.23 zm-8.77,0 h7.23 v11.46 h-7.23 z" fill="#6c63ff" opacity="0.1" id="svg_52" class=""/><path d="M902.6500033569336,469.2700001525879 v7.93 a3.12,3.12 0 0 0 0.43000000000000005,-0.15000000000000002 v-7 h7.23 v4.26 l1.54,-0.6300000000000001 V470.0900001525879 h7.23 v0.4 c0.8500000000000001,-0.39000000000000007 1.6900000000000002,-0.8 2.52,-1.21 z" fill="#6c63ff" opacity="0.1" id="svg_53" class=""/><path d="M323.5600033569336,269.0300001525879 l0.05000000000000001,0 h0 zm54.94,237.81 l0.9,0 v0 zm58.64,-119.5 h0 c0.16000000000000003,-0.51 0.31000000000000005,-1 0.48000000000000004,-1.54 C437.4500033569336,386.3200001525879 437.29000335693354,386.8300001525879 437.14000335693356,387.3400001525879 zM323.5600033569336,269.0300001525879 l0.05000000000000001,0 h0 zM830.3700033569336,148.38000015258788 v3.44 h40.47 v-3.44 zM378.5000033569336,506.8400001525879 l0.9,0 v0 zm58.64,-119.5 h0 c0.16000000000000003,-0.51 0.31000000000000005,-1 0.48000000000000004,-1.54 C437.4500033569336,386.3200001525879 437.29000335693354,386.8300001525879 437.14000335693356,387.3400001525879 zM323.5600033569336,269.0300001525879 l0.05000000000000001,0 h0 zm54.94,237.81 l0.9,0 v0 zm58.64,-119.5 h0 c0.16000000000000003,-0.51 0.31000000000000005,-1 0.48000000000000004,-1.54 C437.4500033569336,386.3200001525879 437.29000335693354,386.8300001525879 437.14000335693356,387.3400001525879 z" fill="#000000" opacity="0.1" id="svg_54" class="" fill-opacity="1"/><ellipse cx="902.9500122070312" cy="820.5900268554688" rx="34.58000183105469" ry="3.8299999237060547" fill="#6d6d6d" opacity="0.1" id="svg_55" class="" fill-opacity="1"/><polygon points="668.32 535.25 651.04 534.3 649.87 484.67 649.6 472.85 667.83 469.49 667.95 484.73 668.32 535.25" fill="#d48a9b" id="svg_56" class=""/><polygon points="654.87 526.61 566.07 581.82 564.15 598.62 573.75 599.1 573.75 587.1 631.83 554.46 561.75 641.34 561.75 654.78 573.27 654.78 572.31 639.9 653.43 547.74 663.51 548.7 748.96 645.66 750.88 661.99 762.4 662.47 760.48 645.66 692.8 561.18 737.92 592.38 738.88 605.82 748 606.3 747.04 589.98 661.11 523.73 654.87 526.61" fill="#484848" id="svg_57" class="" fill-opacity="1"/><path d="M543.3100033569336,432.18000015258787 A158.41,158.41 0 0 0 564.2300033569336,398.0900001525879 c6.11,-13.52 12.81,-29.13 13.32,-33.75 c1,-8.64 25.44,-25.92 52.32,-26.88 c17.53,-0.6300000000000001 44.84,-14.31 61.74,-23.76 a125.67,125.67 0 0 1 51.8,-16 c19.77,-1.49 38.36,2.39 29,25.33 L646.7100033569336,475.2500001525879 s-107.2,18.89 -113.81,-11.48 a25.26,25.26 0 0 0 -1.53,-4.46 C530.1200033569336,456.4400001525879 529.7900033569335,448.9500001525879 543.3100033569336,432.18000015258787 z" fill="#484848" id="svg_58" class="" fill-opacity="1"/><path d="M552.7500033569336,435.2000001525879 a163.07,163.07 0 0 0 21.13,-34.4 c5.7,-12.64 11.75,-26.81 12.23,-31.1 c0.92,-8.25 24.34,-24.76 50.06,-25.68 c16.77,-0.6000000000000001 42.9,-13.66 59.06,-22.69 A120.41,120.41 0 0 1 744.8100033569336,306.0900001525879 c18.91,-1.42 36.7,2.29 27.78,24.2 l-99.71,146 s-123,17.45 -129.51,-11.42 a28.87,28.87 0 0 0 -1.53,-4.48 C540.7000033569336,457.5300001525879 540.5400033569335,450.5200001525879 552.7500033569336,435.2000001525879 z" fill="#000000" opacity="0.2" id="svg_59" class="" fill-opacity="1"/><path d="M667.9500033569336,484.7300001525879 c-5.78,0 -11.870000000000001,0 -18.08,-0.06000000000000001 l-0.27,-11.82 l18.23,-3.35 z" opacity="0.1" id="svg_60" class=""/><g opacity="0.1" id="svg_61"><polygon points="737.92 589.5 692.8 558.3 697.97 564.75 737.92 592.38 738.88 605.82 748 606.3 747.83 603.41 738.88 602.94 737.92 589.5" id="svg_62"/><polygon points="573.75 584.22 573.75 587.1 627.58 556.85 631.83 551.58 573.75 584.22" id="svg_63"/><polygon points="561.75 651.9 561.75 654.78 573.27 654.78 573.08 651.9 561.75 651.9" id="svg_64"/><polygon points="573.75 596.22 564.47 595.76 564.15 598.62 573.75 599.1 573.75 596.22" id="svg_65"/><polygon points="750.88 659.11 748.96 642.78 663.51 545.82 653.43 544.86 572.31 637.02 572.48 639.71 653.43 547.74 663.51 548.7 748.96 645.66 750.88 661.99 762.4 662.47 762.07 659.57 750.88 659.11" id="svg_66"/></g><path d="M657.7500033569336,390.1500001525879 S680.2300033569336,406.5900001525879 670.3900033569336,406.7800001525879 S657.7500033569336,390.1500001525879 657.7500033569336,390.1500001525879 z" opacity="0.1" id="svg_67" class=""/><path d="M563.4300033569336,480.0900001525879 s37.2,-2.88 51.12,-29.76 c0,0 28.32,-56.17 51.37,-62.41 s65.76,-20.16 83.52,-41.76 s25.21,-38.16 25.21,-38.16 S779.2300033569336,325.4800001525879 764.8000033569336,346.0900001525879 S745.1200033569336,398.4400001525879 735.0400033569335,432.0900001525879 s-13.92,47 -32.16,49 c-13.75,1.45 -86.45,0.7200000000000001 -121.21,0 C570.3000033569336,480.78000015258795 563.4300033569336,480.0900001525879 563.4300033569336,480.0900001525879 z" fill="#000000" id="svg_68" class="" fill-opacity="1"/><path d="M563.4300033569336,480.0900001525879 s37.2,-2.88 51.12,-29.76 c0,0 28.32,-56.17 51.37,-62.41 s65.76,-20.16 83.52,-41.76 s25.21,-38.16 25.21,-38.16 S779.2300033569336,325.4800001525879 764.8000033569336,346.0900001525879 S745.1200033569336,398.4400001525879 735.0400033569335,432.0900001525879 s-13.92,47 -32.16,49 c-13.75,1.45 -86.45,0.7200000000000001 -121.21,0 C570.3000033569336,480.78000015258795 563.4300033569336,480.0900001525879 563.4300033569336,480.0900001525879 z" fill="#000000" opacity="0.2" id="svg_69" class="" fill-opacity="1"/><path d="M572.7900033569335,480.0900001525879 s35.56,-2.79 48.86,-28.82 c0,0 27.08,-54.38 49.1,-60.42 s62.86,-19.53 79.84,-40.44 s24.09,-36.95 24.09,-36.95 s4.35,17 -9.41,36.95 s-18.81,50.66 -28.45,83.2 s-13.3,45.55 -30.74,47.41 c-13.14,1.4 -82.63,0.6900000000000002 -115.86,0 C579.3600033569336,480.8100001525879 572.7900033569335,480.0900001525879 572.7900033569335,480.0900001525879 z" fill="#242424" id="svg_70" class="" fill-opacity="1"/><path d="M543.9900033569336,466.0900001525879 s19.44,7.44 30.48,3.36 s38.4,-16.08 38.4,-16.08 S566.7900033569335,456.2900001525879 543.9900033569336,466.0900001525879 z" opacity="0.1" id="svg_71" class=""/><path d="M673.9700033569336,815.4400001525879 s-55.88,-3 -69.5,-11 s-32.9,-8 -33,-8 l-222.5,-48.5 l-92.5,-22 l-16.5,-2.17 l54.5,-62.36 l1.6600000000000001,-0.7200000000000001 l80.34,-34.75 s36,2 43.11,25.46 a28.33,28.33 0 0 1 1,5.06 a29.36,29.36 0 0 1 -5.68,20.54 c-2.84,3.88 -6.33,9.39 -7.43,14.24 c-0.6200000000000001,2.74 -0.48000000000000004,5.27 1,7.2 a58.69,58.69 0 0 0 9.88,7.890000000000001 c19.59,13 69.11,34.42 155.62,1.61 c0,0 37,-36.5 65,-21 S673.9700033569336,815.4400001525879 673.9700033569336,815.4400001525879 z" fill="#b6b6b6" id="svg_72" class="" fill-opacity="1"/><path d="M407.51000335693357,691.2400001525879 c-0.6200000000000001,2.74 -0.48000000000000004,5.27 1,7.2 a58.69,58.69 0 0 0 9.88,7.890000000000001 L249.9700033569336,718.9400001525879 L296.13000335693357,660.6900001525879 l80.34,-34.75 s36,2 43.11,25.46 a28.33,28.33 0 0 1 1,5.06 a29.36,29.36 0 0 1 -5.68,20.54 C412.1000033569336,680.8800001525879 408.6100033569336,686.3900001525878 407.51000335693357,691.2400001525879 z" opacity="0.1" id="svg_73"/><polygon points="242.97 461.94 380.97 464.94 380.97 630.13 249.97 718.94 218.47 689.94 224.97 593.94 218.47 504.44 242.97 461.94" fill="#484848" id="svg_74" class="" fill-opacity="1"/><path d="M164.4700033569336,434.9400001525879 L325.5900033569336,385.2900001525879 a24.41,24.41 0 0 1 8.95,-1 l384.9,28.09 a181.82,181.82 0 0 1 91.66,32.33 c24.91,17.57 49.58,44.54 61,85.38 a163.05,163.05 0 0 1 -1.6500000000000001,91.83 l-34,110 s25.5,-239 -229,-251 z" fill="#919191" id="svg_75" class="" fill-opacity="1"/><path d="M164.4700033569336,434.9400001525879 L325.5900033569336,385.2900001525879 a24.41,24.41 0 0 1 8.95,-1 l384.9,28.09 a181.82,181.82 0 0 1 91.66,32.33 c24.91,17.57 49.58,44.54 61,85.38 a163.05,163.05 0 0 1 -1.6500000000000001,91.83 l-34,110 s25.5,-239 -229,-251 z" fill="#919191" class="" fill-opacity="1" id="svg_193"/><path d="M938.2300033569336,710.7300001525879 a16.86,16.86 0 0 0 -2.27,4.29 c-0.15000000000000002,0.37000000000000005 -0.28,0.8 -0.42000000000000004,1.21 a4.65,4.65 0 0 0 -0.79,-0.28 a11,11 0 0 0 -3.5700000000000003,-0.30000000000000004 c0,-0.47000000000000003 0,-0.9500000000000001 0.07,-1.47 c0.14,-5.27 -0.48000000000000004,-12.61 -5.5,-9.5 c-4.83,3 -1.3900000000000001,8 1.7200000000000002,11.2 l0.8,0.79 c-2.83,2 -3.37,6.73 -3.85,11.64 s-4.640000000000001,10.28 -7.4,13.33 c-0.28,0.32000000000000006 -0.54,0.5900000000000001 -0.78,0.8500000000000001 a10.15,10.15 0 0 0 -8,-2.07 l-0.37000000000000005,-1.35 c-2.24,-8.09 -6.890000000000001,-22.1 -12.82,-25.17 c0.25,-0.31000000000000005 0.51,-0.6300000000000001 0.78,-1 c2.52,-3.29 5.35,-8.19 1.1600000000000001,-9.44 s-4.5600000000000005,4.25 -4.33,8.36 q0,0.78 0.12000000000000001,1.47 a6.15,6.15 0 0 0 -4.39,2.14 l-0.6400000000000001,-0.77 c-3.4,-4 -9.64,-10.37 -11.52,-5.5600000000000005 c-1.7600000000000002,4.48 3.73,10.3 7.59,13.67 l0.24000000000000002,0.21000000000000002 c-2.6,10.51 8.72,19.08 14.81,22.83 l0.78,0.48000000000000004 c-8.4,9.9 -13.58,28.46 -13.58,28.46 l23.52,4.2 s15.59,-13.46 13.6,-26.1 l0.16000000000000003,0 c15.58,-3.12 19.13,-19.74 16.7,-29.6 l0.28,-0.12000000000000001 a17.69,17.69 0 0 0 7.21,-5.46 C951.8500033569335,711.6200001525879 942.7000033569336,704.780000152588 938.2300033569336,710.7300001525879 z" fill="#000000" class="" fill-opacity="1" id="svg_194"/><path d="M938.2300033569336,710.7300001525879 a16.86,16.86 0 0 0 -2.27,4.29 c-0.15000000000000002,0.37000000000000005 -0.28,0.8 -0.42000000000000004,1.21 a4.65,4.65 0 0 0 -0.79,-0.28 a11,11 0 0 0 -3.5700000000000003,-0.30000000000000004 c0,-0.47000000000000003 0,-0.9500000000000001 0.07,-1.47 c0.14,-5.27 -0.48000000000000004,-12.61 -5.5,-9.5 c-4.83,3 -1.3900000000000001,8 1.7200000000000002,11.2 l0.8,0.79 c-2.83,2 -3.37,6.73 -3.85,11.64 s-4.640000000000001,10.28 -7.4,13.33 c-0.28,0.32000000000000006 -0.54,0.5900000000000001 -0.78,0.8500000000000001 a10.15,10.15 0 0 0 -8,-2.07 l-0.37000000000000005,-1.35 c-2.24,-8.09 -6.890000000000001,-22.1 -12.82,-25.17 c0.25,-0.31000000000000005 0.51,-0.6300000000000001 0.78,-1 c2.52,-3.29 5.35,-8.19 1.1600000000000001,-9.44 s-4.5600000000000005,4.25 -4.33,8.36 q0,0.78 0.12000000000000001,1.47 a6.15,6.15 0 0 0 -4.39,2.14 l-0.6400000000000001,-0.77 c-3.4,-4 -9.64,-10.37 -11.52,-5.5600000000000005 c-1.7600000000000002,4.48 3.73,10.3 7.59,13.67 l0.24000000000000002,0.21000000000000002 c-2.6,10.51 8.72,19.08 14.81,22.83 l0.78,0.48000000000000004 c-8.4,9.9 -13.58,28.46 -13.58,28.46 l23.52,4.2 s15.59,-13.46 13.6,-26.1 l0.16000000000000003,0 c15.58,-3.12 19.13,-19.74 16.7,-29.6 l0.28,-0.12000000000000001 a17.69,17.69 0 0 0 7.21,-5.46 C951.8500033569335,711.6200001525879 942.7000033569336,704.780000152588 938.2300033569336,710.7300001525879 z" opacity="0.1" class="" fill="#000000" fill-opacity="1" id="svg_195"/><path d="M891.4000033569336,717.5100001525878 l-2.75,8.05 s-1.52,-1.08 -3.45,-2.7800000000000002 c-3.8600000000000003,-3.37 -9.35,-9.19 -7.59,-13.67 c1.8800000000000001,-4.8100000000000005 8.12,1.54 11.52,5.5600000000000005 C890.5000033569336,716.2700001525878 891.4000033569336,717.5100001525878 891.4000033569336,717.5100001525878 z" fill="#6c63ff" class="" id="svg_196"/><path d="M897.2300033569336,712.9100001525879 A38.1,38.1 0 0 1 894.5300033569335,716.0900001525879 a39,39 0 0 1 -0.49000000000000005,-4.24 c-0.23,-4.11 0.2,-9.59 4.33,-8.36 S899.7300033569336,709.6200001525879 897.2300033569336,712.9100001525879 z" fill="#6c63ff" class="" id="svg_197"/><path d="M932.6800033569336,714.1800001525879 c-0.09000000000000002,2.6500000000000004 -0.35000000000000003,4.77 -0.35000000000000003,4.77 a34.68,34.68 0 0 1 -3.43,-3.07 c-3.11,-3.22 -6.55,-8.21 -1.7200000000000002,-11.2 C932.2300033569336,701.5700001525879 932.8200033569335,708.9100001525879 932.6800033569336,714.1800001525879 z" fill="#000000" class="" id="svg_198" fill-opacity="1"/><path d="M948.9200033569336,717.6500001525878 a17.69,17.69 0 0 1 -7.21,5.46 a19.38,19.38 0 0 1 -2.42,0.8800000000000001 l-3.24,-4.55 a32.17,32.17 0 0 1 1.34,-4.42 a16.86,16.86 0 0 1 2.27,-4.29 C944.1400033569337,704.780000152588 953.2900033569335,711.6200001525879 948.9200033569336,717.6500001525878 z" fill="#000000" class="" id="svg_199" fill-opacity="1"/><path d="M889.1300033569336,714.6700001525879 c1.37,1.6 2.27,2.84 2.27,2.84 l-2.75,8.05 s-1.52,-1.08 -3.45,-2.7800000000000002 a15.68,15.68 0 0 1 3.09,-7.07 C888.5700033569336,715.3300001525879 888.8600033569336,714.9900001525879 889.1300033569336,714.6700001525879 z" opacity="0.1" class="" id="svg_200"/><path d="M897.2300033569336,712.9100001525879 A38.1,38.1 0 0 1 894.5300033569335,716.0900001525879 a39,39 0 0 1 -0.49000000000000005,-4.24 A5.55,5.55 0 0 1 897.2300033569336,712.9100001525879 z" opacity="0.1" class="" id="svg_201"/><path d="M910.7300033569336,744.8700001525879 l-6.84,3 a41.38,41.38 0 0 1 -3.64,-2.06 c-7.19,-4.42 -21.65,-15.55 -12,-28.67 s17.77,10.41 21,21.92 C910.2300033569336,742.5100001525878 910.7300033569336,744.8700001525879 910.7300033569336,744.8700001525879 z" fill="#000000" class="" fill-opacity="1" id="svg_202"/><path d="M928.9000033569337,715.8800001525879 a5.67,5.67 0 0 1 3.7800000000000002,-1.7000000000000002 c-0.09000000000000002,2.6500000000000004 -0.35000000000000003,4.77 -0.35000000000000003,4.77 A34.68,34.68 0 0 1 928.9000033569337,715.8800001525879 z" opacity="0.1" class="" id="svg_203" fill="#000000" fill-opacity="1"/><path d="M941.7100033569336,723.0900001525879 a19.38,19.38 0 0 1 -2.42,0.8800000000000001 l-3.24,-4.55 a32.17,32.17 0 0 1 1.34,-4.42 C939.4800033569336,716.2400001525879 941.0200033569336,719.280000152588 941.7100033569336,723.0900001525879 z" opacity="0.1" class="" id="svg_204" fill="#000000" fill-opacity="1"/><path d="M924.7300033569336,752.8300001525879 c-0.38000000000000006,0.08000000000000002 -0.7600000000000001,0.15000000000000002 -1.15,0.21000000000000002 c-22.93,3.48 -7.5600000000000005,-8.89 -7.5600000000000005,-8.89 s1,-0.9500000000000001 2.43,-2.51 c2.7600000000000002,-3 6.93,-8.39 7.4,-13.33 c0.7200000000000001,-7.43 1.56,-14.4 10.33,-12.36 C944.7900033569335,717.9700001525879 946.4300033569336,748.4900001525879 924.7300033569336,752.8300001525879 z" fill="#000000" class="" fill-opacity="1" id="svg_205"/><circle cx="893.9299926757812" cy="724.3499755859375" r="1.440000057220459" opacity="0.1" class="" id="svg_206"/><circle cx="893.8099975585938" cy="731.0700073242188" r="1.440000057220459" opacity="0.1" class="" fill="#242424" fill-opacity="1" id="svg_207"/><circle cx="935.5700073242188" cy="725.6699829101562" r="1.440000057220459" opacity="0.1" class="" fill="#242424" fill-opacity="1" id="svg_208"/><circle cx="932.5700073242188" cy="736.8300170898438" r="1.440000057220459" opacity="0.1" class="" fill="#242424" fill-opacity="1" id="svg_209"/><circle cx="898.8499755859375" cy="727.22998046875" r="1.440000057220459" opacity="0.1" class="" fill="#242424" fill-opacity="1" id="svg_210"/><circle cx="931.6099853515625" cy="729.989990234375" r="1.440000057220459" opacity="0.1" class="" fill="#242424" fill-opacity="1" id="svg_211"/><circle cx="901.010009765625" cy="735.989990234375" r="1.440000057220459" opacity="0.1" class="" fill="#242424" fill-opacity="1" id="svg_212"/><path d="M249.9700033569336,458.4400001525879 V723.7700001525878 s-44.15,-6.21 -52,-14.83 c-6.44,-7.07 -43.75,-27 -59.94,-47.53 c-3.55,-4.5 -6.09,-9 -7.06,-13.47 c-5.42,-24.68 -27.5,-83 -27.5,-83 l6,-57 l25,-37 l48.5,-22 h37.5 z" fill="#6d6d6d" id="svg_76" class="" fill-opacity="1"/><path d="M179.9700033569336,461.9400001525879 s-71.76,45 -56.06,117.41 c1.28,5.9 2.39,11.83 3.12,17.83 c2.87,23.42 20.09,90.72 122.94,121.76 v7 l-43.63,-12.17 l-29.62,-16.33 l-22.61,-20.28 l-27.64,-33.72 l-12.83,-27.5 l-4.7,-36.22 L106.2300033569336,538.3700001525879 l6.61,-35.47 l15.59,-23.08 l19,-14.77 z" fill="#d9d6df" id="svg_77" class=""/><path d="M249.9700033569336,458.4400001525879 v42.21 c-31.3,3.4 -128.21,23 -111,135 l-0.9500000000000001,25.72 c-3.55,-4.5 -6.09,-9 -7.06,-13.47 c-5.42,-24.68 -27.5,-83 -27.5,-83 l6,-57 l25,-37 l48.5,-22 h37.5 z" opacity="0.1" id="svg_78" class=""/><path d="M414.94000335693363,677.0000001525879 c-2.84,3.88 -6.33,9.39 -7.43,14.24 c-4.36,-5 -5.3,-10.75 1,-15.3 c7.890000000000001,-5.74 10.52,-15.7 11.11,-24.54 a28.33,28.33 0 0 1 1,5.06 A29.36,29.36 0 0 1 414.94000335693363,677.0000001525879 z" fill="#fff" opacity="0.1" id="svg_79"/><path d="M818.9700033569336,703.9400001525879 l-19,64.5 l-43,42 l-54,11 l-84,-15 V507.9400001525879 s14.5,-9.5 16,-9.5 s42,6.5 42,6.5 l91.7,65.77 l3.8,2.73 l41,61 z" fill="#6d6d6d" id="svg_80" class="" fill-opacity="1"/><polygon points="618.97 495.44 618.97 806.44 627.07 807.89 627.07 495.44 618.97 495.44" fill="#484848" id="svg_81" class="" fill-opacity="1"/><path d="M770.4700033569336,591.4400001525879 c-60,-49.3 -126.7,-56.55 -151.5,-57.45 v-26 s14.5,-9.5 16,-9.5 s42,6.5 42,6.5 l91.7,65.77 z" opacity="0.1" id="svg_82" class=""/><path d="M606.3000033569336,475.4400001525879 l-375.83,-41 L188.2300033569336,432.2000001525879 a86.81,86.81 0 0 0 -70.21,29.35 c-22,25.3 -38.63,69.93 -14.34,146.56 c0,0 25.33,99.33 148,120.67 l356.44,80.77 c7.9,1.79 15.7,4 23.4,6.51 c32.36,10.63 142,38.17 193.65,-55.45 c17.7,-32.1 23,-69.53 16.18,-105.56 C828.9200033569336,589.1500001525878 781.9900033569336,477.3200001525879 606.3000033569336,475.4400001525879 zM790.4300033569336,756.3300001525879 C742.2300033569336,834.8500001525879 642.9100033569335,811.4800001525879 613.0500033569336,802.2600001525878 c-7.3100000000000005,-2.26 -14.71,-4.23 -22.2,-5.83 L261.5900033569336,725.9900001525879 C148.15000335693358,707.3600001525879 124.7200033569336,620.6300001525879 124.7200033569336,620.6300001525879 c-19.15,-57 -10.78,-93.78 4.7,-117.06 c16.21,-24.37 44.43,-38 73.67,-36.52 l38.92,2 l336.16,44.91 c6.8,0.91 13.65,1.51 20.51,1.7400000000000002 c149.49,5.07 196,87.27 207.82,143.92 C813.4400033569336,692.7300001525879 808.1600033569335,727.4700001525879 790.4300033569336,756.3300001525879 z" fill="#dadada" id="svg_83" class="" fill-opacity="1"/><path d="M3.7279112637043,642.3826361364127 c12.31,8.24 31,4.32 31,4.32 s28.19,-13.35 36.52,-13.35 s28.59,-8.25 28.59,-8.25 l-0.6900000000000007,-5.5600000000000005 l-2.06,-16.75 c12.83,10 27.09,6.55 34.11,5.82 c7.54,-0.78 47.83,-24.73 51.71,-26.31 c1.05,-0.4200000000000002 2.2800000000000002,-1.79 3.5300000000000002,-3.56 h0 a90.77,90.77 0 0 0 6.82,-12.46 h0 c2.52,-2.22 4.36,-4 4.23,-4.39 s1,-3.31 2.47,-6.6 c5.72,-1 10.65,-3.12 12.22,-4.4 a10.67,10.67 0 0 0 4,-8.64 s39.31,-39.65 34.14,-56.14 s12.71,-16.89 12.71,-16.89 s27.39,-11.78 31.2,-18.84 c2.35,-4.35 22.9,-13.9 38.36,-20.6 l1.9,-0.8200000000000004 c6,13.15 36.48,3 42.48,-2.5300000000000002 c6.35,-5.8900000000000015 25,-8.64 25,-8.64 s0.8,-77 6.75,-86.78 c2.83,-4.65 3.51,-19.85 3.44,-34.53 c0,-0.52 0,-1 0,-1.56 c8.34,-1.6300000000000003 28.18,-5.4 37.39,-6.3100000000000005 c5.84,-0.5800000000000004 11.93,-4.22 16.6,-7.76 l0.55,0.6900000000000007 a11.4,11.4 0 0 0 5.07,0.8300000000000004 a7.76,7.76 0 0 0 4.45,-0.8300000000000004 c3.58,-2 16.68,-5.8900000000000015 21.44,-7.85 s-0.79,-16.1 -4.36,-18.85 s-6,-6.28 -4,-7.85 s-4.76,-5.5 -8.73,-6.29 s-15.88,-6.28 -15.88,-6.28 s-4.37,-9 -11.51,-9 s-16.68,-7.07 -16.68,-7.07 c-0.3900000000000003,-3.14 -7.94,-3.5300000000000002 -7.94,-3.5300000000000002 s-28.58,-22 -33.35,-19.24 s-17.86,-4.32 -17.86,-4.32 s-16.07,1.8 -19.85,-1.1600000000000001 v0 a4.46,4.46 0 0 0 -1,-2.66 c-0.8500000000000004,-2.66 -5,-6.3 -9,-9.33 a35.4,35.4 0 0 0 0.46,-5.68 c0,-0.8200000000000004 0,-1.6400000000000001 -0.0900000000000001,-2.45 c0,-0.14 0,-0.27 0,-0.4100000000000002 l0.5700000000000004,-5.53 a11.42,11.42 0 0 1 1.3800000000000001,-5.2 c0.6700000000000007,-1 1.6600000000000001,-1.85 2.41,-2.84 a7.06,7.06 0 0 0 0.4800000000000002,-0.7300000000000004 l0.12000000000000002,-0.2100000000000001 a6.54,6.54 0 0 0 0.3000000000000002,-0.5900000000000004 l0.0900000000000001,-0.2 a9.6,9.6 0 0 0 0.51,-1.6800000000000006 l0,-0.13 c0.05000000000000004,-0.26 0.0900000000000001,-0.52 0.12000000000000002,-0.79 a0.45,0.45 0 0 1 0,-0.11000000000000006 a16.75,16.75 0 0 0 -0.9,-6.74 c-1.19,-3.71 -3.05,-7.29 -3.25,-11.16 c-0.1,-1.92 0.2200000000000001,-3.88 -0.2,-5.76 c-1,-4.29 -5.37,-7 -9.620000000000001,-8.8 c-5.87,-2.46 -8.83,-5.15 -13.54,-8.81 c-4,-3.1 -10.620000000000001,-1.54 -15.66,-1.22 c-11.52,0.7400000000000004 -22.89,4.21 -33.73,7.79 c-4.21,1.4 -8.5,3 -11.78,5.85 a13,13 0 0 0 -4.3100000000000005,7.28 h0 a9.52,9.52 0 0 0 -0.13,2 c0,0.06000000000000004 0,0.12000000000000002 0,0.17 c0,0.26 0,0.51 0.0900000000000001,0.7600000000000005 a1.87,1.87 0 0 0 0,0.25 a5.9,5.9 0 0 0 0.2200000000000001,0.9 v0 c0.46,1.45 1.31,2.7600000000000002 1.8,4.2 a8.21,8.21 0 0 1 0.27,1 s0,0.07 0,0.1 c0.07,0.3200000000000003 0.12000000000000002,0.6300000000000004 0.16000000000000014,1 h0 c0.4400000000000002,3.5700000000000003 -0.8800000000000004,7.3 -1.46,10.94 c-0.08000000000000006,0.51 -0.14,1 -0.1800000000000001,1.56 h0 v0 a18.64,18.64 0 0 0 0.55,6.27 a0.1900000000000001,0.1900000000000001 0 0 0 0,0.07 c0.06000000000000004,0.25 0.1500000000000001,0.5 0.23,0.7400000000000004 a3,3 0 0 0 0.1,0.3200000000000003 c0.07,0.2100000000000001 0.16000000000000014,0.4200000000000002 0.2400000000000001,0.6200000000000004 l0.17,0.4200000000000002 c0.08000000000000006,0.1800000000000001 0.17,0.3600000000000002 0.26,0.54 s0.1500000000000001,0.3000000000000002 0.23,0.4400000000000002 a5.46,5.46 0 0 0 0.27,0.4800000000000002 c0.0900000000000001,0.16000000000000014 0.1900000000000001,0.3100000000000002 0.2900000000000002,0.46 s0.1900000000000001,0.2900000000000002 0.3000000000000002,0.4300000000000002 s0.23,0.3100000000000002 0.3500000000000002,0.46 l0.3100000000000002,0.3800000000000002 l0.4200000000000002,0.4400000000000002 l0.3300000000000003,0.3300000000000003 l0.4900000000000002,0.4200000000000002 c0.12000000000000002,0.0900000000000001 0.2200000000000001,0.1900000000000001 0.34000000000000036,0.27 s0.4100000000000002,0.2900000000000002 0.6200000000000004,0.4200000000000002 l0.2900000000000002,0.2 c0.3200000000000003,0.1900000000000001 0.6600000000000007,0.3600000000000002 1,0.52 c2.2800000000000002,1 5.16,1.4100000000000001 6.53,3.42 a4.22,4.22 0 0 1 0.6700000000000007,1.56 c0,0.13 0,0.27 0,0.4 v0.3500000000000002 c0,1.1600000000000001 0.08000000000000006,2.31 0.2,3.44 a12.73,12.73 0 0 0 0.11000000000000006,1.86 a5.33,5.33 0 0 0 0.3800000000000002,1.35 a35.68,35.68 0 0 0 12,20.22 c0.12000000000000002,0.6100000000000004 0.26,1.32 0.4100000000000002,2.12 a39.71,39.71 0 0 1 -11.55,6 c-9.53,2.79 -23,15.66 -23,15.66 s-6.7,48.29 -8.31,54.18 s-2.8,28.67 -2.8,28.67 s-1.59,9.42 -4,14.13 c-1.6900000000000008,3.3200000000000003 -1.3800000000000001,17.59 3.3200000000000003,26.26 a21.9,21.9 0 0 1 -2.92,4.76 c-9.53,11 -38.12,10.6 -47.65,10.6 c-8.77,0 -11.48,5.32 -11.85,6.16 c-17.45,5 -73.95,21.08 -80.65,24 c-7.94,3.47 -12.31,37.76 -12.31,37.76 S70.4079112637043,486.9226361364126 71.1979112637043,494.38263613641266 s-5.5600000000000005,28.24 -5.5600000000000005,28.24 s0,23.49 -2.6900000000000004,25.08 a0.25,0.25 0 0 1 -0.08000000000000006,0.05000000000000004 c-2.7800000000000002,1.18 -2.39,12.57 -2.39,12.57 s2.05,0.5900000000000004 5.24,1.4 c-0.8500000000000004,5.75 -4,13.8 -6.43,19.52 c-1.24,-1.57 -2.45,-2.22 -3.17,-0.4 c-2,5 -31.76,40.34 -39.31,40.34 c-3.59,0 -9.53,2.94 -13.44,6.91 C-0.9120887362957006,632.4626361364126 -2.732088736295694,638.0726361364126 3.7279112637043,642.3826361364127 zM140.2779112637043,437.8126361364126 c33.75,3.14 69.88,-2.39 69.88,-2.39 s-2.7800000000000002,9.85 -5.16,13.78 s-9.14,26.31 -9.14,31 s-10.72,45.15 -13.89,47.11 c-1.33,0.8300000000000004 -2.52,2.89 -3.46,5 a46.94,46.94 0 0 0 -2.1,6 q0.07,1.53 0.27,2.91 c-2.37,2.17 -4.88,4.45 -7.11,6.47 h0 s-14.2,7.9 -19,12.22 s-27,9.620000000000001 -27,9.620000000000001 a138.21,138.21 0 0 0 -16,8.15 c-6.8900000000000015,4.15 -13.78,9.43 -15.58,14.64 c0.78,-8.78 2.05,-19.35 2.9,-26.07 l1.26,-0.05000000000000004 c11.13,-0.6900000000000007 9.47,-11.31 8.88,-13.94 c-0.08000000000000006,-0.3800000000000002 -0.14,-0.5900000000000004 -0.14,-0.5900000000000004 c7.94,-8.64 25.8,-73 23.42,-80.1 s2,-13.35 2.93,-13.35 s2.23,-7.85 0.25,-12.17 S140.2779112637043,437.8126361364126 140.2779112637043,437.8126361364126 zm272.9,-173.22 l-2.11,0.52 l0,-0.45 S411.8379112637043,264.66263613641263 413.17791126370435,264.59263613641264 zM297.8179112637043,205.3426361364126 c-0.3200000000000003,0.4 -0.6400000000000005,0.78 -1,1.15 l-0.4100000000000002,0.4200000000000002 c0,-0.7300000000000004 0,-1.47 0,-2.18 C296.8879112637043,204.92263613641262 297.3479112637043,205.1526361364126 297.8179112637043,205.3426361364126 zM258.0479112637043,281.52263613641264 l0.14,2.21 s-0.2100000000000001,1.35 -0.6100000000000004,3.66 zm182.45,-21.94 l-6.93,1.19 c1,-0.3700000000000002 1.9500000000000002,-0.77 2.89,-1.22 a6.65,6.65 0 0 1 2.21,-0.6000000000000004 a12.69,12.69 0 0 1 2.58,0.55 A4.78,4.78 0 0 0 440.4979112637043,259.58263613641265 z" fill="#b6b6b6" id="svg_84" class="" fill-opacity="1"/><path d="M206.7100033569336,543.2300001525879 s-8,16.51 -7.59,17.68 S181.9700033569336,576.0900001525879 181.9700033569336,576.0900001525879 l-19.09,-13.63 l2,-9.36 s21.43,-19.31 23,-21.54 S206.7100033569336,543.2300001525879 206.7100033569336,543.2300001525879 z" fill="#919191" id="svg_85" class="" fill-opacity="1"/><path d="M97.8100033569336,599.0900001525879 c13.25,12.86 28.83,9 36.24,8.19 s46.94,-24.55 50.74,-26.11 c1,-0.42000000000000004 2.25,-1.78 3.47,-3.54 h0 a89.92,89.92 0 0 0 6.69,-12.37 c-0.26,0.07 -13.22,3.7800000000000002 -16.49,0 c0,0 -5.46,-6.69 -6.63,-6.69 s-0.09000000000000002,-11.74 -0.09000000000000002,-11.74 s-13.94,7.84 -18.61,12.13 s-26.5,9.54 -26.5,9.54 a134,134 0 0 0 -15.68,8.09 C100.6300033569336,582.8900001525878 90.2300033569336,591.780000152588 97.8100033569336,599.0900001525879 z" fill="#000000" id="svg_86" class="" fill-opacity="1"/><path d="M97.8100033569336,599.0900001525879 c13.25,12.86 28.83,9 36.24,8.19 s46.94,-24.55 50.74,-26.11 c1,-0.42000000000000004 2.25,-1.78 3.47,-3.54 c-4.61,-2.75 -34.73,16.4 -43.16,19.91 S115.34000335693361,599.0900001525879 103.2300033569336,594.030000152588 c-6,-2.5300000000000002 0.08000000000000002,-10.3 7.7,-17.44 C100.6300033569336,582.8900001525878 90.2300033569336,591.780000152588 97.8100033569336,599.0900001525879 z" opacity="0.1" id="svg_87" class=""/><path d="M99.37000335693358,558.5700001525879 s-5.55,41.69 -4.14,47.15 s-34.83,-18.7 -34.83,-18.7 s12.68,-26.13 9,-32.13 S99.37000335693358,558.5700001525879 99.37000335693358,558.5700001525879 z" fill="#919191" id="svg_88" class="" fill-opacity="1"/><path d="M64.6900033569336,559.3500001525879 s22.6,6.62 35.06,5.84 c10.92,-0.6800000000000002 9.29,-11.22 8.72,-13.83 c-0.08000000000000002,-0.37000000000000005 -0.14,-0.5800000000000001 -0.14,-0.5800000000000001 c7.79,-8.58 25.33,-72.48 23,-79.49 S133.2300033569336,458.0900001525879 134.2300033569336,458.0900001525879 s2.19,-7.8 0.24000000000000002,-12.08 s8.58,-8.18 8.58,-8.18 c33.12,3.11 68.58,-2.38 68.58,-2.38 s-2.73,9.78 -5.07,13.68 s-9,26.1 -9,30.78 s-10.52,44.81 -13.64,46.76 c-1.3,0.8200000000000001 -2.47,2.8600000000000003 -3.39,5 a46.75,46.75 0 0 0 -2.06,6 c1.17,26.11 30.78,16 35.07,12.47 a11.5,11.5 0 0 0 1.6600000000000001,-1.7000000000000002 a10.9,10.9 0 0 0 2.23,-6.88 s38.58,-39.35 33.51,-55.72 s12.47,-16.75 12.47,-16.75 s26.89,-11.69 30.63,-18.71 c2.31,-4.3100000000000005 22.47,-13.78 37.65,-20.44 c9.51,-4.17 17.06,-7.22 17.06,-7.22 l-6.32,-22.66 l-5,-17.87 l-9.38,-3.52 l-30,-11.28 L244.2300033569336,359.8400001525879 l-4.93,0.6400000000000001 l-52.29,6.77 S110.67000335693359,389.0900001525879 102.87000335693358,392.5100001525879 s-12.08,37.47 -12.08,37.47 S74.43000335693358,486.4800001525879 75.2300033569336,493.92000015258793 s-5.46,28 -5.46,28 s0,23.31 -2.6500000000000004,24.89 a0.14,0.14 0 0 1 -0.08000000000000002,0 C64.30000335693359,548.0900001525879 64.6900033569336,559.3500001525879 64.6900033569336,559.3500001525879 z" fill="#000000" id="svg_89" class="" fill-opacity="1"/><path d="M143.0100033569336,437.7800001525879 c33.12,3.11 68.58,-2.38 68.58,-2.38 c2.34,-7.37 35.09,-27.63 35.09,-27.63 C219.81000335693358,401.1500001525879 143.0100033569336,437.7800001525879 143.0100033569336,437.7800001525879 z" opacity="0.1" id="svg_90" class=""/><path d="M178.4700033569336,537.530000152588 c1.17,26.11 30.78,16 35.07,12.47 a11.5,11.5 0 0 0 1.6600000000000001,-1.7000000000000002 c-10.35,3.81 -28.7,6.76 -34.67,-16.73 A46.75,46.75 0 0 0 178.4700033569336,537.530000152588 z" fill="#444053" id="svg_91" class=""/><path d="M64.6900033569336,559.3500001525879 s22.6,6.62 35.06,5.84 c10.92,-0.6800000000000002 9.29,-11.22 8.72,-13.83 c-11.44,-0.36000000000000004 -31.14,-1.4300000000000002 -41.37,-4.53 a0.14,0.14 0 0 1 -0.08000000000000002,0 C64.30000335693359,548.0900001525879 64.6900033569336,559.3500001525879 64.6900033569336,559.3500001525879 z" fill="#444053" id="svg_92" class=""/><path d="M178.4700033569336,537.530000152588 c1.17,26.11 30.78,16 35.07,12.47 a11.5,11.5 0 0 0 1.6600000000000001,-1.7000000000000002 c-10.35,3.81 -28.7,6.76 -34.67,-16.73 A46.75,46.75 0 0 0 178.4700033569336,537.530000152588 z" opacity="0.1" id="svg_93" class="" fill="#919191" fill-opacity="1"/><path d="M64.6900033569336,559.3500001525879 s22.6,6.62 35.06,5.84 c10.92,-0.6800000000000002 9.29,-11.22 8.72,-13.83 c-11.44,-0.36000000000000004 -31.14,-1.4300000000000002 -41.37,-4.53 a0.14,0.14 0 0 1 -0.08000000000000002,0 C64.30000335693359,548.0900001525879 64.6900033569336,559.3500001525879 64.6900033569336,559.3500001525879 z" opacity="0.1" id="svg_94" class="" fill="#919191" fill-opacity="1"/><path d="M8.960003356933598,640.7900001525879 c12.08,8.18 30.4,4.28 30.4,4.28 s27.66,-13.24 35.85,-13.24 S103.2300033569336,623.6400001525878 103.2300033569336,623.6400001525878 l-0.6700000000000002,-5.51 l-3.22,-26.44 s-30.35,-0.78 -31.57,-3.51 c0,0 -5.45,-13.42 -7.4,-8.46 s-31.17,40 -38.58,40 c-3.5300000000000002,0 -9.36,2.92 -13.19,6.86 C4.430003356933597,630.9500001525879 2.6400033569335903,636.5100001525878 8.960003356933598,640.7900001525879 z" fill="#000000" id="svg_95" class="" fill-opacity="1"/><path d="M113.7800033569336,410.5000001525879 s25.33,16 18.32,19.48 S113.7800033569336,410.5000001525879 113.7800033569336,410.5000001525879 z" opacity="0.1" id="svg_96" class=""/><path d="M103.2300033569336,441.2800001525879 s21.82,20.72 13.64,21.27 S103.2300033569336,441.2800001525879 103.2300033569336,441.2800001525879 z" opacity="0.1" id="svg_97" class=""/><path d="M79.8800033569336,507.0900001525879 s11.08,20.83 6.91,24.44 S79.8800033569336,507.0900001525879 79.8800033569336,507.0900001525879 z" opacity="0.1" id="svg_98" class=""/><path d="M201.8500033569336,528.1800001525879 c-3.9,3.89 37,-12.86 27.66,-13.64 S201.8500033569336,528.1800001525879 201.8500033569336,528.1800001525879 z" opacity="0.1" id="svg_99" class=""/><path d="M283.6700033569336,235.93000015258787 l1.31,-0.19000000000000003 c4.84,-0.7400000000000001 22.41,-3.5 38.17,-6.92 c3.84,-0.8400000000000001 7.5600000000000005,-1.71 11,-2.6100000000000003 c12.07,-3.16 20.17,-6.57 15,-9.37 c-6.84,-3.71 -10.44,-10.45 -12.34,-16.25 c-0.18000000000000002,-0.5700000000000001 -0.35000000000000003,-1.12 -0.51,-1.6700000000000002 a43.31,43.31 0 0 1 -1.57,-9 s-44,-15.59 -35.46,0 c4.21,7.65 1.3800000000000001,13.89 -2.59,18.26 a34.28,34.28 0 0 1 -9.49,7.07 z" fill="#efb7b9" id="svg_100" class=""/><path d="M330.82000335693357,223.85000015258788 s-15.75,11.3 -31.84,1.9500000000000002 s-37.13,82.61 -37.13,82.61 L240.0300033569336,362.18000015258787 s-14.13,11.69 3.46,16.76 s56.61,-5.07 66.52,9.74 s28.67,17.14 30.59,17.14 S349.9400033569336,350.0900001525879 349.9400033569336,350.0900001525879 l1.9300000000000002,-80.66 z" opacity="0.1" id="svg_101" class=""/><path d="M244.2300033569336,375.8200001525879 c17.59,5.06 56.62,-5.07 66.53,9.74 A38.06,38.06 0 0 0 327.5500033569336,399.0900001525879 a44,44 0 0 0 13.83,3.66 c0.25,0 0.6200000000000001,-1 1.05,-2.79 c2.74,-11.28 8.29,-52.94 8.29,-52.94 l1.92,-80.66 L334.13000335693357,226.2100001525879 l-2.5300000000000002,-5.48 a33.39,33.39 0 0 1 -8,3.91 c-6.09,2.06 -14.9,3.22 -23.82,-2 c-4.72,-2.74 -9.870000000000001,3.24 -14.78,13.06 c-11.84,23.64 -22.35,69.55 -22.35,69.55 L240.81000335693358,359.0900001525879 a18.52,18.52 0 0 0 -1.48,1.42 C236.2300033569336,363.7500001525879 230.4200033569336,371.8400001525879 244.2300033569336,375.8200001525879 z" fill="#fca311" id="svg_102" class="" fill-opacity="1"/><path d="M328.07000335693357,378.5300001525879 a102.22,102.22 0 0 0 -0.52,20.52 a240.33,240.33 0 0 0 3.66,29 a11.43,11.43 0 0 0 0.48000000000000004,1.77 c9.51,-4.17 17.06,-7.22 17.06,-7.22 l-6.32,-22.66 c2.74,-11.28 8.29,-52.94 8.29,-52.94 l1.92,-80.66 L334.13000335693357,226.2100001525879 c12.07,-3.16 20.17,-6.57 15,-9.37 c-7.5,-4.07 -11.11,-11.79 -12.85,-17.92 A65.05,65.05 0 0 1 325.2300033569336,210.8400001525879 l-0.24000000000000002,0.2 l-1.4,13.6 l-0.43000000000000005,4.18 l-0.9,8.67 s4.29,102.48 7.4,108.33 s1.56,17.14 -1.1600000000000001,30.39 C328.3300033569336,376.9600001525879 328.2300033569336,377.7300001525879 328.07000335693357,378.5300001525879 z" opacity="0.1" id="svg_103" class=""/><path d="M330.0400033569336,374.6500001525879 c-2.72,13.25 -0.39000000000000007,35.07 2.73,51.82 s36.24,5.85 42.48,0 s24.54,-8.57 24.54,-8.57 s0.78,-76.37 6.63,-86.11 c2.77,-4.62 3.44,-19.7 3.37,-34.27 c-0.05000000000000001,-13.08 -0.7000000000000001,-25.75 -0.9400000000000001,-30 c-0.06000000000000001,-1 -0.09000000000000002,-1.55 -0.09000000000000002,-1.55 s25.32,-42.86 24.93,-46 s-7.79,-3.5 -7.79,-3.5 s-28,-21.82 -32.73,-19.1 S375.63000335693357,193.0900001525879 375.63000335693357,193.0900001525879 s-16.29,1.85 -19.66,-1.3 a1.7200000000000002,1.7200000000000002 0 0 1 -0.6000000000000001,-1.4300000000000002 c0.38000000000000006,-5 -16.6,-15.64 -17.13,-16 c14.32,12.88 -8.83,32.73 -11.46,34.91 l-0.24000000000000002,0.2 l-2.73,26.45 s4.29,102.48 7.4,108.33 S332.7700033569336,361.4000001525879 330.0400033569336,374.6500001525879 z" fill="#8d99ae" id="svg_104" class="" fill-opacity="1"/><circle cx="331.54998779296875" cy="263.3299865722656" r="1.9500000476837158" fill="#444053" id="svg_105" class=""/><path d="M327.5600033569336,210.8400001525879 l11.84,11.45 l17.35,-29 a1.7200000000000002,1.7200000000000002 0 0 1 -0.6000000000000001,-1.4300000000000002 c0.38000000000000006,-5 -16.61,-15.64 -17.13,-16 C353.3400033569336,188.8100001525879 330.2300033569336,208.66000015258788 327.5600033569336,210.8400001525879 z" opacity="0.1" id="svg_106" class=""/><circle cx="335.45001220703125" cy="325.6700134277344" r="1.9500000476837158" opacity="0.1" id="svg_107" class=""/><circle cx="335.45001220703125" cy="324.8900146484375" r="1.9500000476837158" fill="#444053" id="svg_108" class=""/><path d="M326.7800033569336,209.2800001525879 l11.84,11.45 l17.35,-29 a1.7200000000000002,1.7200000000000002 0 0 1 -0.6000000000000001,-1.4300000000000002 c0.38000000000000006,-5 -16.6,-15.64 -17.13,-16 C352.5600033569336,187.2500001525879 329.4100033569336,207.0900001525879 326.7800033569336,209.2800001525879 z" fill="#8d99ae" id="svg_109" class="" fill-opacity="1"/><rect x="1168.510009765625" y="923.0700073242188" width="27.1200008392334" height="57.29999923706055" rx="1.7000000476837158" ry="1.7000000476837158" transform="rotate(-178.69000244140625 751.6099853515624,625.7499999999999) " fill="#d1d9ec" id="svg_110"/><rect x="1168.919921875" y="926.8599853515625" width="27.1200008392334" height="57.29999923706055" rx="1.7000000476837158" ry="1.7000000476837158" transform="rotate(-178.69000244140625 751.8699951171875,628.280029296875) " fill="#6d6d6d" id="svg_111" class="" fill-opacity="1"/><circle cx="329.55999755859375" cy="279.42999267578125" r="4.260000228881836" fill="#fff" id="svg_112" class=""/><path d="M182.75000335693358,371.1400001525879 c9.74,4.29 73.65,-7 83,-9.74 s23,-23.77 16.37,-39 s2.33,-30 2.33,-30 s14,-30 17.15,-35.85 s9.620000000000001,-22.86 10.52,-25.71 a2.34,2.34 0 0 0 -0.55,-1.79 C309.0300033569336,225.2200001525879 299.2300033569336,218.4000001525879 299.2300033569336,218.4000001525879 c-2.75,1 -3.09,-6.890000000000001 -3,-12.68 c0.06000000000000001,-3.24 0.25,-5.82 0.25,-5.82 s-1.29,1.31 -3.4,3.1 c-0.77,0.6500000000000001 -1.6500000000000001,1.37 -2.63,2.11 A40.43,40.43 0 0 1 278.2300033569336,211.82000015258788 c-9.35,2.77 -22.6,15.54 -22.6,15.54 l3.9,59.84 s-9,56.28 -18.32,67.19 s-37.41,10.52 -46.76,10.52 S182.75000335693358,371.1400001525879 182.75000335693358,371.1400001525879 z" opacity="0.1" id="svg_113" class=""/><path d="M181.9700033569336,368.8100001525879 c9.74,4.28 73.65,-7 83,-9.75 s23,-23.77 16.37,-39 s2.33,-30 2.33,-30 s14,-30 17.15,-35.85 s9.620000000000001,-22.86 10.52,-25.71 a2.35,2.35 0 0 0 -0.55,-1.79 C308.2300033569336,222.8900001525879 298.4800033569336,216.0900001525879 298.4800033569336,216.0900001525879 c-2.75,1 -3.09,-6.88 -3,-12.67 c0.06000000000000001,-3.25 0.25,-5.83 0.25,-5.83 s-1.29,1.31 -3.4,3.11 c-0.77,0.6400000000000001 -1.6500000000000001,1.36 -2.63,2.1 a40.43,40.43 0 0 1 -12.28,6.71 c-9.35,2.77 -22.6,15.54 -22.6,15.54 l3.9,59.84 s-9,56.28 -18.32,67.19 s-37.4,10.52 -46.76,10.52 S181.9700033569336,368.8100001525879 181.9700033569336,368.8100001525879 z" fill="#8d99ae" id="svg_114" class="" fill-opacity="1"/><path d="M287.9600033569336,199.0900001525879 s0.37000000000000005,2.05 1,5.21 c2.1,10.7 7.1,34.06 10.71,33.16 c2.59,-0.6500000000000001 7,-5.23 10.36,-9.19 c-2.5300000000000002,-3.8600000000000003 -12.31,-10.68 -12.31,-10.68 c-2.75,1 -3.09,-6.88 -3,-12.67 l-3.15,-2.72 z" opacity="0.1" id="svg_115" class=""/><path d="M288.7400033569336,197.5600001525879 s0.37000000000000005,2.05 1,5.21 c2.1,10.7 7.1,34.06 10.71,33.16 c2.59,-0.6500000000000001 7,-5.23 10.36,-9.19 C308.2300033569336,222.8900001525879 298.4800033569336,216.0900001525879 298.4800033569336,216.0900001525879 c-2.75,1 -3.09,-6.88 -3,-12.67 l-3.15,-2.72 z" fill="#8d99ae" id="svg_116" class="" fill-opacity="1"/><path d="M263.8000033569336,312.30000015258787 s19.49,-3.89 24.94,-12.46 s42.57,-16 38,-7 s-38,38.29 -38,38.29 L274.2300033569336,351.9000001525879 l-19.38,-4.92 L246.68000335693358,331.0900001525879 z" fill="#efb7b9" id="svg_117" class=""/><path d="M309.9000033569336,334.5400001525879 s-18.87,7 -21.71,16.36 S309.9000033569336,334.5400001525879 309.9000033569336,334.5400001525879 z" opacity="0.1" id="svg_118" class=""/><path d="M321.4700033569336,345.43000015258787 s1.7200000000000002,9.73 -21.93,9 z" opacity="0.1" id="svg_119" class=""/><path d="M423.56000335693363,220.73000015258788 l8.58,-0.78 s9.35,7 16.36,7 s11.3,9 11.3,9 s11.69,5.46 15.59,6.24 s10.52,4.67 8.57,6.23 s0.39000000000000007,5.07 3.9,7.79 s9,16.76 4.28,18.71 s-17.53,5.84 -21,7.79 s-7.79,0 -7.79,0 s-20.64,-26.89 -31.17,-21.82 S407.2300033569336,265.93000015258787 407.2300033569336,265.93000015258787 l-11.3,-23.76 z" opacity="0.1" id="svg_120" class=""/><path d="M244.2300033569336,348.9500001525879 c1.84,2.74 4.22,4.66 7.27,5.05 a55,55 0 0 0 22.69,-2.1 s-39.25,-12.47 -1.46,-42.79 H262.63000335693357 L259.2300033569336,307.8300001525879 l1.54,-8.07 l2.22,-72.79 l-8.18,-1.9500000000000002 s-6.59,47.93 -8.16,53.77 s-2.75,28.45 -2.75,28.45 s-1.56,9.35 -3.9,14 C238.2300033569336,324.7800001525879 238.7200033569336,340.6300001525879 244.2300033569336,348.9500001525879 z" fill="#8d99ae" id="svg_121" class="" fill-opacity="1"/><path d="M245.82000335693357,348.9500001525879 c1.83,2.74 4.22,4.66 7.27,5.05 a55,55 0 0 0 22.69,-2.1 S236.5300033569336,339.43000015258787 274.32000335693357,309.0900001525879 H264.2300033569336 l-3.37,-1.28 C255.2300033569336,317.6600001525879 246.5300033569336,335.1500001525879 245.82000335693357,348.9500001525879 z" opacity="0.1" id="svg_122" class=""/><path d="M244.2300033569336,348.9500001525879 c1.84,2.74 4.22,4.66 7.27,5.05 a55,55 0 0 0 22.69,-2.1 s-39.25,-12.47 -1.46,-42.79 H262.63000335693357 L259.2300033569336,307.8300001525879 C253.7100033569336,317.6600001525879 244.9700033569336,335.1500001525879 244.2300033569336,348.9500001525879 z" fill="none" id="svg_123" class=""/><path d="M244.2300033569336,348.9500001525879 c1.84,2.74 4.22,4.66 7.27,5.05 a55,55 0 0 0 22.69,-2.1 s-39.25,-12.47 -1.46,-42.79 H262.63000335693357 L259.2300033569336,307.8300001525879 C253.7100033569336,317.6600001525879 244.9700033569336,335.1500001525879 244.2300033569336,348.9500001525879 z" fill="#8d99ae" id="svg_124" class="" fill-opacity="1"/><path d="M296.6700033569336,208.2100001525879 a35.47,35.47 0 0 0 40.13,-7.62 c-0.18000000000000002,-0.5700000000000001 -0.35000000000000003,-1.12 -0.51,-1.6700000000000002 a43.31,43.31 0 0 1 -1.57,-9 s-44,-15.59 -35.46,0 C303.4700033569336,197.60000015258788 300.6400033569336,203.8400001525879 296.6700033569336,208.2100001525879 z" opacity="0.1" id="svg_125" class=""/><path d="M275.88000335693357,174.3600001525879 v0.35000000000000003 c0,1.15 0.08000000000000002,2.29 0.2,3.41 s0.28,2.14 0.48000000000000004,3.19 a35.47,35.47 0 0 0 68.32,4.58 c0.24000000000000002,-0.6900000000000002 0.45,-1.3800000000000001 0.6400000000000001,-2.08 a35.06,35.06 0 0 0 1.28,-9.45 c0,-0.81 0,-1.6300000000000001 -0.09000000000000002,-2.43 a35.46,35.46 0 0 0 -70.83,2.43 z" fill="#efb7b9" id="svg_126" class=""/><path d="M275.88000335693357,174.7100001525879 a15.27,15.27 0 0 1 0.2,3.41 a12.67,12.67 0 0 0 0.1,1.85 a5.25,5.25 0 0 0 0.38000000000000006,1.34 c1.4300000000000002,3.36 6.11,5.54 9.2,3.37 a9.86,9.86 0 0 0 2.7600000000000002,-3.62 c3.2800000000000002,-6.09 7.83,-13.09 15,-13.21 c3.06,-0.06000000000000001 5.93,1.23 8.89,2 s6.46,0.8400000000000001 8.66,-1.17 c1.7000000000000002,-1.55 2.5,-4.19 4.77,-4.73 s4.37,1.54 5.41,3.58 s1.87,4.44 4,5.5 c0.9400000000000001,0.46 2,0.6000000000000001 3,1.1 c4.24,2.3200000000000003 2.29,10.45 6.69,11.77 a3.2,3.2 0 0 0 0.42000000000000004,0.1 c0.07,-0.7200000000000001 0.15000000000000002,-1.46 0.22000000000000003,-2.18 q0.6000000000000001,-5.94 1.19,-11.88 a35.46,35.46 0 0 0 -70.83,2.43 z" opacity="0.1" id="svg_127" class=""/><path d="M338.8700033569336,121.4300001525879 c4.17,1.77 8.51,4.49 9.44,8.74 c0.41000000000000003,1.87 0.1,3.81 0.2,5.71 c0.2,3.84 2,7.4 3.19,11.08 s1.59,8 -0.7500000000000001,11.1 c-0.7300000000000001,1 -1.7000000000000002,1.79 -2.36,2.81 A11.5,11.5 0 0 0 347.2300033569336,166.0900001525879 l-1.9300000000000002,19.18 c-4.94,-0.93 -2.74,-9.5 -7.12,-11.88 c-0.91,-0.5 -2,-0.6400000000000001 -2.95,-1.11 c-2.11,-1 -2.93,-3.45 -4,-5.49 s-3.1,-4.13 -5.41,-3.58 s-3.07,3.19 -4.76,4.73 c-2.21,2 -5.72,1.92 -8.67,1.17 s-5.83,-2 -8.88,-2 c-7.18,0.12000000000000001 -11.74,7.12 -15,13.21 a9.89,9.89 0 0 1 -2.77,3.63 c-3.48,2.44 -9,-0.6400000000000001 -9.57,-4.72 c-0.3400000000000001,-2.29 0.38000000000000006,-4.84 -0.9400000000000001,-6.78 s-4.18,-2.35 -6.41,-3.39 c-5.7,-2.62 -7.46,-9.73 -6.52,-15.69 c0.6900000000000002,-4.3 2.4,-8.72 1,-12.86 c-0.49000000000000005,-1.4300000000000002 -1.32,-2.73 -1.77,-4.16 c-1.25,-4 0.79,-8.44 4,-11.29 s7.42,-4.42 11.56,-5.8 c10.63,-3.5700000000000003 21.79,-7 33.1,-7.74 c4.95,-0.32000000000000006 11.44,-1.87 15.37,1.22 C330.2300033569336,116.32000015258788 333.1100033569336,118.9900001525879 338.8700033569336,121.4300001525879 z" fill="#000000" id="svg_128" class="" fill-opacity="1"/><circle cx="329.6000061035156" cy="232.5399932861328" r="1.9500000476837158" opacity="0.1" id="svg_129" class=""/><circle cx="329.6000061035156" cy="231.75999450683594" r="1.9500000476837158" fill="#444053" id="svg_130" class=""/><circle cx="342.07000732421875" cy="354.8999938964844" r="1.9500000476837158" opacity="0.1" id="svg_131" class=""/><circle cx="342.07000732421875" cy="354.1199951171875" r="1.9500000476837158" fill="#444053" id="svg_132" class=""/><circle cx="335.45001220703125" cy="387.239990234375" r="1.9500000476837158" opacity="0.1" id="svg_133" class=""/><circle cx="335.45001220703125" cy="386.4599914550781" r="1.9500000476837158" fill="#444053" id="svg_134" class=""/><path d="M268.4800033569336,263.3300001525879 s-4.29,29.1 0,34.17 S268.4800033569336,263.3300001525879 268.4800033569336,263.3300001525879 z" opacity="0.1" id="svg_135" class=""/><path d="M395.9000033569336,317.37000015258786 s8.18,17.63 0,34.53 s-13.25,23.77 -10.52,34.56 S395.9000033569336,317.37000015258786 395.9000033569336,317.37000015258786 z" opacity="0.1" id="svg_136" class=""/><path d="M8.960003356933598,640.7900001525879 c12.08,8.18 30.4,4.28 30.4,4.28 s27.66,-13.24 35.85,-13.24 S103.2300033569336,623.6400001525878 103.2300033569336,623.6400001525878 l-0.6700000000000002,-5.51 c-8.07,1.55 -26.43,5.26 -28.55,7.07 c-2.73,2.34 -36.24,13.64 -36.24,13.64 s-22.82,-2.85 -29.17,-12.23 C4.430003356933597,630.9500001525879 2.6400033569335903,636.5100001525878 8.960003356933598,640.7900001525879 z" opacity="0.1" id="svg_137"/><g opacity="0.1" id="svg_138" class=""><path d="M348.51000335693357,132.76000015258788 c0,-0.42000000000000004 0,-0.8400000000000001 0,-1.27 c0,0.49000000000000005 0,1 0,1.46 C348.5300033569336,132.8900001525879 348.51000335693357,132.8300001525879 348.51000335693357,132.76000015258788 z" id="svg_139"/><path d="M268.8300033569336,165.91000015258788 c2.23,1 5,1.4 6.41,3.38 s0.6000000000000001,4.49 0.9400000000000001,6.78 c0.5900000000000001,4.08 6.09,7.17 9.57,4.72 a9.89,9.89 0 0 0 2.77,-3.63 c3.27,-6.09 7.83,-13.09 15,-13.21 c3.06,-0.05000000000000001 5.93,1.24 8.89,2 s6.46,0.8400000000000001 8.67,-1.17 c1.6900000000000002,-1.54 2.49,-4.19 4.76,-4.73 s4.36,1.54 5.41,3.58 s1.87,4.44 4,5.5 c0.9400000000000001,0.46 2,0.6000000000000001 2.95,1.1 c4.38,2.39 2.18,11 7.12,11.88 q1,-9.6 1.9300000000000002,-19.18 a11.46,11.46 0 0 1 1.36,-5.16 c0.6600000000000001,-1 1.6300000000000001,-1.84 2.36,-2.8200000000000003 a8.59,8.59 0 0 0 1.6,-4.12 a10,10 0 0 1 -1.6,7.24 c-0.7300000000000001,1 -1.7000000000000002,1.79 -2.36,2.81 A11.5,11.5 0 0 0 347.2300033569336,166.0900001525879 q-1,9.59 -1.9300000000000002,19.18 c-4.94,-0.93 -2.74,-9.5 -7.12,-11.88 c-0.91,-0.5 -2,-0.6400000000000001 -2.95,-1.11 c-2.11,-1 -2.93,-3.45 -4,-5.49 s-3.1,-4.13 -5.41,-3.58 s-3.07,3.19 -4.76,4.73 c-2.21,2 -5.72,1.92 -8.67,1.17 s-5.83,-2 -8.89,-2 c-7.17,0.12000000000000001 -11.73,7.12 -15,13.21 a9.89,9.89 0 0 1 -2.77,3.63 c-3.48,2.44 -9,-0.6400000000000001 -9.57,-4.72 c-0.3400000000000001,-2.29 0.38000000000000006,-4.84 -0.9400000000000001,-6.78 s-4.18,-2.35 -6.41,-3.39 c-5.21,-2.4 -7.13,-8.55 -6.69,-14.14 C262.5200033569336,159.4900001525879 264.5800033569336,163.9500001525879 268.8300033569336,165.91000015258788 z" id="svg_140"/><path d="M261.5400033569336,133.19000015258788 c0.45,1.4300000000000002 1.28,2.74 1.77,4.16 a12,12 0 0 1 0.44000000000000006,5.13 a10,10 0 0 0 -0.44000000000000006,-2 c-0.49000000000000005,-1.4300000000000002 -1.32,-2.73 -1.77,-4.16 a8.78,8.78 0 0 1 -0.23,-4.07 A8.2,8.2 0 0 0 261.5400033569336,133.19000015258788 z" id="svg_141"/></g><path d="M481.3700033569336,454.1400001525879 L401.0500033569336,444.0900001525879 a3.07,3.07 0 0 1 -1.83,-5.18 l33.69,-35 a3.06,3.06 0 0 1 2.56,-0.92 l61.41,6.88 a3.07,3.07 0 0 1 2.52,4.16 l-14.78,38.19 A3.08,3.08 0 0 1 481.3700033569336,454.1400001525879 z" fill="#746d83" id="svg_142" class=""/><path d="M481.3700033569336,454.1400001525879 L401.0500033569336,444.0900001525879 a3.07,3.07 0 0 1 -1.83,-5.18 l33.69,-35 a3.06,3.06 0 0 1 2.56,-0.92 l61.41,6.88 a3.07,3.07 0 0 1 2.52,4.16 l-14.78,38.19 A3.08,3.08 0 0 1 481.3700033569336,454.1400001525879 z" opacity="0.1" id="svg_143" class=""/><path d="M480.4600033569336,453.24000015258787 l-80.31,-10.09 a3.08,3.08 0 0 1 -1.83,-5.19 l33.69,-35 a3.1,3.1 0 0 1 2.56,-0.93 l61.4,6.88 a3.08,3.08 0 0 1 2.5300000000000002,4.17 l-14.79,38.19 A3.09,3.09 0 0 1 480.4600033569336,453.24000015258787 z" fill="#b6b6b6" id="svg_144" class="" fill-opacity="1"/><path d="M432.6000033569336,416.6700001525879 l24.12,1.94 l34.4,-2.24 l-0.5900000000000001,0 l-31.87,-3.08 c-7.3,-2.68 -2.24,-18.46 -2.24,-18.46 l-24.41,1.24 l-1.9500000000000002,0.1 C421.43000335693364,416.37000015258786 432.6000033569336,416.6700001525879 432.6000033569336,416.6700001525879 z" fill="#d1d9ec" id="svg_145" class=""/><path d="M432.6000033569336,416.6700001525879 l24.12,1.94 l34.4,-2.24 l-0.5900000000000001,0 l-34.78,1.24 l-23.3,-2.5300000000000002 c-6.62,-1.7400000000000002 -2.83,-13.22 -0.44000000000000006,-19 l-1.9500000000000002,0.1 C421.43000335693364,416.37000015258786 432.6000033569336,416.6700001525879 432.6000033569336,416.6700001525879 z" opacity="0.1" id="svg_146" class=""/><path d="M390.3500033569336,273.24000015258787 L397.7300033569336,379.0900001525879 l1,13.89 a6,6 0 0 0 6.06,5.61 h2.24 l111.1,-0.6700000000000002 a3.13,3.13 0 0 0 3.08,-3.43 l-1,-13.9 l-7.82,-93.08 a6.39,6.39 0 0 0 -4.27,-5.4 L402.2300033569336,266.2300001525879 c-3.6,-1.25 -7.27,-0.81 -9.56,1.1 A6.72,6.72 0 0 0 390.3500033569336,273.24000015258787 z" fill="#4c4c56" id="svg_147" class=""/><path d="M397.7300033569336,379.0900001525879 l1,13.89 a6,6 0 0 0 6.06,5.61 h2.24 l111.1,-0.6700000000000002 a3.13,3.13 0 0 0 3.08,-3.43 l-1,-13.9 z" fill="#dfe6f5" id="svg_148" class=""/><ellipse cx="472.2099914550781" cy="390.6099853515625" rx="1.4900000095367432" ry="2.9800000190734863" fill="#fff" id="svg_149" class=""/><path d="M467.89000335693356,430.2200001525879 s-30.38,-11.47 -38.57,-3.13 c0,0 -1.34,2.54 4.17,3.13 l22.26,1.79 S464.91000335693354,432.9000001525879 467.89000335693356,430.2200001525879 z" fill="#d1d9ec" id="svg_150" class=""/><path d="M467.0800033569336,427.24000015258787 c-6,-2.44 -23.93,-8.75 -35.43,-1.77 c0,0 12.72,-1.4100000000000001 19.71,2.63 s16.53,2.12 16.53,2.12 l0.14,-0.25 A1.9300000000000002,1.9300000000000002 0 0 0 467.0800033569336,427.24000015258787 z" fill="#dfe6f5" id="svg_151" class=""/><path d="M390.3500033569336,273.24000015258787 l8.34,119.76 a6,6 0 0 0 6.06,5.61 h2.24 a21.34,21.34 0 0 1 -3.88,-5 s-8.19,-120.34 -8.79,-123.32 a6.1,6.1 0 0 0 -1.6500000000000001,-2.94 A6.72,6.72 0 0 0 390.3500033569336,273.24000015258787 z" fill="#dfe6f5" id="svg_152" class=""/><path d="M390.3500033569336,273.24000015258787 l8.34,119.76 a6,6 0 0 0 6.06,5.61 h2.24 a21.34,21.34 0 0 1 -3.88,-5 s-8.19,-120.34 -8.79,-123.32 a6.1,6.1 0 0 0 -1.6500000000000001,-2.94 A6.72,6.72 0 0 0 390.3500033569336,273.24000015258787 z" opacity="0.1" id="svg_153" class=""/><path d="M376.0200033569336,306.4400001525879 c9,-2 30,-8.16 30,-8.16 l3.7600000000000002,-0.7600000000000001 c-0.05000000000000001,-13.08 -0.7000000000000001,-25.75 -0.9400000000000001,-30 h-0.09000000000000002 s-17.93,5.85 -22.21,9 s-17.54,2.33 -17.54,2.33 S348.3600033569336,279.9600001525879 331.2300033569336,299.0900001525879 S367.0600033569336,308.4100001525879 376.0200033569336,306.4400001525879 z" opacity="0.1" id="svg_154" class=""/><path d="M463.6100033569336,271.6700001525879 a5.21,5.21 0 0 1 1.17,8.74 c-4.75,3.93 -11.68,8.63 -18.3,9.29 c-11,1.11 -37.6,6.44 -40.24,7 a3.2,3.2 0 0 0 -0.42000000000000004,0.1 c-2.19,0.6400000000000001 -21.35,6.25 -29.8,8.1 c-9,2 -62,11.71 -44.81,-7.38 c15.78,-17.58 34.53,-20 37.42,-20.23 a4,4 0 0 1 0.6900000000000002,0 c2,0.09000000000000002 13.32,0.48000000000000004 17.23,-2.35 a36.81,36.81 0 0 1 6.44,-3.21 a123.2,123.2 0 0 1 26.35,-7.6 l18.33,-3.2 a5.26,5.26 0 0 1 3.08,0.4 z" fill="#efb7b9" id="svg_155" class=""/><path d="M425.1200033569336,220.73000015258788 l8.57,-0.78 s9.36,7 16.37,7 s11.3,9 11.3,9 s11.69,5.46 15.59,6.24 s10.52,4.67 8.57,6.23 s0.39000000000000007,5.07 3.9,7.79 s9,16.76 4.28,18.71 s-17.53,5.84 -21,7.79 s-7.79,0 -7.79,0 S444.2300033569336,255.80000015258787 433.7000033569336,260.87000015258786 s-24.94,5.06 -24.94,5.06 l-11.3,-23.76 z" fill="#8d99ae" id="svg_156" class="" fill-opacity="1"/><path d="M938.2300033569336,710.7300001525879 a16.86,16.86 0 0 0 -2.27,4.29 c-0.15000000000000002,0.37000000000000005 -0.28,0.8 -0.42000000000000004,1.21 a4.65,4.65 0 0 0 -0.79,-0.28 a11,11 0 0 0 -3.5700000000000003,-0.30000000000000004 c0,-0.47000000000000003 0,-0.9500000000000001 0.07,-1.47 c0.14,-5.27 -0.48000000000000004,-12.61 -5.5,-9.5 c-4.83,3 -1.3900000000000001,8 1.7200000000000002,11.2 l0.8,0.79 c-2.83,2 -3.37,6.73 -3.85,11.64 s-4.640000000000001,10.28 -7.4,13.33 c-0.28,0.32000000000000006 -0.54,0.5900000000000001 -0.78,0.8500000000000001 a10.15,10.15 0 0 0 -8,-2.07 l-0.37000000000000005,-1.35 c-2.24,-8.09 -6.890000000000001,-22.1 -12.82,-25.17 c0.25,-0.31000000000000005 0.51,-0.6300000000000001 0.78,-1 c2.52,-3.29 5.35,-8.19 1.1600000000000001,-9.44 s-4.5600000000000005,4.25 -4.33,8.36 q0,0.78 0.12000000000000001,1.47 a6.15,6.15 0 0 0 -4.39,2.14 l-0.6400000000000001,-0.77 c-3.4,-4 -9.64,-10.37 -11.52,-5.5600000000000005 c-1.7600000000000002,4.48 3.73,10.3 7.59,13.67 l0.24000000000000002,0.21000000000000002 c-2.6,10.51 8.72,19.08 14.81,22.83 l0.78,0.48000000000000004 c-8.4,9.9 -13.58,28.46 -13.58,28.46 l23.52,4.2 s15.59,-13.46 13.6,-26.1 l0.16000000000000003,0 c15.58,-3.12 19.13,-19.74 16.7,-29.6 l0.28,-0.12000000000000001 a17.69,17.69 0 0 0 7.21,-5.46 C951.8500033569335,711.6200001525879 942.7000033569336,704.780000152588 938.2300033569336,710.7300001525879 z" fill="#000000" id="svg_157" class="" fill-opacity="1"/><path d="M938.2300033569336,710.7300001525879 a16.86,16.86 0 0 0 -2.27,4.29 c-0.15000000000000002,0.37000000000000005 -0.28,0.8 -0.42000000000000004,1.21 a4.65,4.65 0 0 0 -0.79,-0.28 a11,11 0 0 0 -3.5700000000000003,-0.30000000000000004 c0,-0.47000000000000003 0,-0.9500000000000001 0.07,-1.47 c0.14,-5.27 -0.48000000000000004,-12.61 -5.5,-9.5 c-4.83,3 -1.3900000000000001,8 1.7200000000000002,11.2 l0.8,0.79 c-2.83,2 -3.37,6.73 -3.85,11.64 s-4.640000000000001,10.28 -7.4,13.33 c-0.28,0.32000000000000006 -0.54,0.5900000000000001 -0.78,0.8500000000000001 a10.15,10.15 0 0 0 -8,-2.07 l-0.37000000000000005,-1.35 c-2.24,-8.09 -6.890000000000001,-22.1 -12.82,-25.17 c0.25,-0.31000000000000005 0.51,-0.6300000000000001 0.78,-1 c2.52,-3.29 5.35,-8.19 1.1600000000000001,-9.44 s-4.5600000000000005,4.25 -4.33,8.36 q0,0.78 0.12000000000000001,1.47 a6.15,6.15 0 0 0 -4.39,2.14 l-0.6400000000000001,-0.77 c-3.4,-4 -9.64,-10.37 -11.52,-5.5600000000000005 c-1.7600000000000002,4.48 3.73,10.3 7.59,13.67 l0.24000000000000002,0.21000000000000002 c-2.6,10.51 8.72,19.08 14.81,22.83 l0.78,0.48000000000000004 c-8.4,9.9 -13.58,28.46 -13.58,28.46 l23.52,4.2 s15.59,-13.46 13.6,-26.1 l0.16000000000000003,0 c15.58,-3.12 19.13,-19.74 16.7,-29.6 l0.28,-0.12000000000000001 a17.69,17.69 0 0 0 7.21,-5.46 C951.8500033569335,711.6200001525879 942.7000033569336,704.780000152588 938.2300033569336,710.7300001525879 z" opacity="0.1" id="svg_158" class="" fill="#000000" fill-opacity="1"/><path d="M891.4000033569336,717.5100001525878 l-2.75,8.05 s-1.52,-1.08 -3.45,-2.7800000000000002 c-3.8600000000000003,-3.37 -9.35,-9.19 -7.59,-13.67 c1.8800000000000001,-4.8100000000000005 8.12,1.54 11.52,5.5600000000000005 C890.5000033569336,716.2700001525878 891.4000033569336,717.5100001525878 891.4000033569336,717.5100001525878 z" fill="#000000" id="svg_159" class="" fill-opacity="1"/><path d="M897.2300033569336,712.9100001525879 A38.1,38.1 0 0 1 894.5300033569335,716.0900001525879 a39,39 0 0 1 -0.49000000000000005,-4.24 c-0.23,-4.11 0.2,-9.59 4.33,-8.36 S899.7300033569336,709.6200001525879 897.2300033569336,712.9100001525879 z" fill="#000000" id="svg_160" class="" fill-opacity="1"/><path d="M932.6800033569336,714.1800001525879 c-0.09000000000000002,2.6500000000000004 -0.35000000000000003,4.77 -0.35000000000000003,4.77 a34.68,34.68 0 0 1 -3.43,-3.07 c-3.11,-3.22 -6.55,-8.21 -1.7200000000000002,-11.2 C932.2300033569336,701.5700001525879 932.8200033569335,708.9100001525879 932.6800033569336,714.1800001525879 z" fill="#000000" id="svg_161" class="" fill-opacity="1"/><path d="M948.9200033569336,717.6500001525878 a17.69,17.69 0 0 1 -7.21,5.46 a19.38,19.38 0 0 1 -2.42,0.8800000000000001 l-3.24,-4.55 a32.17,32.17 0 0 1 1.34,-4.42 a16.86,16.86 0 0 1 2.27,-4.29 C944.1400033569337,704.780000152588 953.2900033569335,711.6200001525879 948.9200033569336,717.6500001525878 z" fill="#000000" id="svg_162" class="" fill-opacity="1"/><path d="M889.1300033569336,714.6700001525879 c1.37,1.6 2.27,2.84 2.27,2.84 l-2.75,8.05 s-1.52,-1.08 -3.45,-2.7800000000000002 a15.68,15.68 0 0 1 3.09,-7.07 C888.5700033569336,715.3300001525879 888.8600033569336,714.9900001525879 889.1300033569336,714.6700001525879 z" opacity="0.1" id="svg_163" class=""/><path d="M897.2300033569336,712.9100001525879 A38.1,38.1 0 0 1 894.5300033569335,716.0900001525879 a39,39 0 0 1 -0.49000000000000005,-4.24 A5.55,5.55 0 0 1 897.2300033569336,712.9100001525879 z" opacity="0.1" id="svg_164" class=""/><path d="M910.7300033569336,744.8700001525879 l-6.84,3 a41.38,41.38 0 0 1 -3.64,-2.06 c-7.19,-4.42 -21.65,-15.55 -12,-28.67 s17.77,10.41 21,21.92 C910.2300033569336,742.5100001525878 910.7300033569336,744.8700001525879 910.7300033569336,744.8700001525879 z" fill="#000000" id="svg_165" class="" fill-opacity="1"/><path d="M928.9000033569337,715.8800001525879 a5.67,5.67 0 0 1 3.7800000000000002,-1.7000000000000002 c-0.09000000000000002,2.6500000000000004 -0.35000000000000003,4.77 -0.35000000000000003,4.77 A34.68,34.68 0 0 1 928.9000033569337,715.8800001525879 z" opacity="0.1" id="svg_166" class="" fill="#000000" fill-opacity="1"/><path d="M941.7100033569336,723.0900001525879 a19.38,19.38 0 0 1 -2.42,0.8800000000000001 l-3.24,-4.55 a32.17,32.17 0 0 1 1.34,-4.42 C939.4800033569336,716.2400001525879 941.0200033569336,719.280000152588 941.7100033569336,723.0900001525879 z" opacity="0.1" id="svg_167" class="" fill="#000000" fill-opacity="1"/><path d="M924.7300033569336,752.8300001525879 c-0.38000000000000006,0.08000000000000002 -0.7600000000000001,0.15000000000000002 -1.15,0.21000000000000002 c-22.93,3.48 -7.5600000000000005,-8.89 -7.5600000000000005,-8.89 s1,-0.9500000000000001 2.43,-2.51 c2.7600000000000002,-3 6.93,-8.39 7.4,-13.33 c0.7200000000000001,-7.43 1.56,-14.4 10.33,-12.36 C944.7900033569335,717.9700001525879 946.4300033569336,748.4900001525879 924.7300033569336,752.8300001525879 z" fill="#000000" id="svg_168" class="" fill-opacity="1"/><rect x="880.489990234375" y="809.9199829101562" width="43.810001373291016" height="11.520000457763672" fill="#6d6d6d" id="svg_169" class="" fill-opacity="1"/><rect x="873.530029296875" y="772.47998046875" width="57.2400016784668" height="40.20000076293945" fill="#6d6d6d" id="svg_170" class="" fill-opacity="1"/><rect x="880.489990234375" y="809.9199829101562" width="43.810001373291016" height="11.520000457763672" opacity="0.1" id="svg_171" class="" fill="#6d6d6d" fill-opacity="1"/><rect x="873.530029296875" y="772.47998046875" width="57.2400016784668" height="40.20000076293945" opacity="0.1" id="svg_172" class="" fill="#6d6d6d" fill-opacity="1"/><rect x="883.3699951171875" y="809.9199829101562" width="43.810001373291016" height="11.520000457763672" fill="#b6b6b6" id="svg_173" class="" fill-opacity="1"/><path d="M909.2300033569336,739.0900001525879 c1,3.44 1.48,5.8 1.48,5.8 l-6.84,3 a41.38,41.38 0 0 1 -3.64,-2.06 C902.9300033569336,742.4200001525879 905.9500033569336,739.8600001525879 909.2300033569336,739.0900001525879 z" opacity="0.1" id="svg_174" class="" fill="#242424" fill-opacity="1"/><path d="M924.7300033569336,752.8300001525879 c-0.38000000000000006,0.08000000000000002 -0.7600000000000001,0.15000000000000002 -1.15,0.21000000000000002 c-22.93,3.48 -7.5600000000000005,-8.89 -7.5600000000000005,-8.89 s1,-0.9500000000000001 2.43,-2.51 C922.7300033569336,745.0900001525879 924.5000033569336,748.9300001525879 924.7300033569336,752.8300001525879 z" opacity="0.1" id="svg_175" class="" fill="#242424" fill-opacity="1"/><path d="M887.4500033569336,774.7600001525878 s12.84,-46 30.84,-31.8 s-7.32,36 -7.32,36 z" fill="#242424" id="svg_176" class="" fill-opacity="1"/><circle cx="893.9299926757812" cy="724.3499755859375" r="1.440000057220459" opacity="0.1" id="svg_177" class=""/><circle cx="893.8099975585938" cy="731.0700073242188" r="1.440000057220459" opacity="0.1" id="svg_178" class="" fill="#242424" fill-opacity="1"/><circle cx="935.5700073242188" cy="725.6699829101562" r="1.440000057220459" opacity="0.1" id="svg_179" class="" fill="#242424" fill-opacity="1"/><circle cx="901.969970703125" cy="760.1199951171875" r="1.440000057220459" opacity="0.1" id="svg_180" class=""/><circle cx="932.5700073242188" cy="736.8300170898438" r="1.440000057220459" opacity="0.1" id="svg_181" class="" fill="#242424" fill-opacity="1"/><circle cx="917.6900024414062" cy="751.719970703125" r="1.440000057220459" opacity="0.1" id="svg_182" class="" fill="#242424" fill-opacity="1"/><circle cx="898.8499755859375" cy="727.22998046875" r="1.440000057220459" opacity="0.1" id="svg_183" class="" fill="#242424" fill-opacity="1"/><circle cx="931.6099853515625" cy="729.989990234375" r="1.440000057220459" opacity="0.1" id="svg_184" class="" fill="#242424" fill-opacity="1"/><circle cx="926.6900024414062" cy="741.1500244140625" r="1.440000057220459" opacity="0.1" id="svg_185" class="" fill="#242424" fill-opacity="1"/><circle cx="911.5700073242188" cy="759.0399780273438" r="1.440000057220459" opacity="0.1" id="svg_186" class=""/><circle cx="908.4500122070312" cy="751.9600219726562" r="1.440000057220459" opacity="0.1" id="svg_187" class="" fill="#242424" fill-opacity="1"/><circle cx="901.010009765625" cy="735.989990234375" r="1.440000057220459" opacity="0.1" id="svg_188" class="" fill="#242424" fill-opacity="1"/><rect x="883.3699951171875" y="809.9199829101562" width="43.810001373291016" height="4.210000038146973" opacity="0.1" id="svg_189" class="" fill="#6d6d6d" fill-opacity="1"/><rect x="877.6599731445312" y="772.47998046875" width="57.2400016784668" height="40.20000076293945" fill="#919191" id="svg_190" class="" fill-opacity="1"/><circle cx="913.489990234375" cy="765.52001953125" r="1.440000057220459" opacity="0.1" id="svg_191" class=""/><circle cx="904.8499755859375" cy="767.3200073242188" r="1.440000057220459" opacity="0.1" id="svg_192"/></g></svg>